<?xml version="1.0" standalone="no"?>
<!DOCTYPE svg PUBLIC "-//W3C//DTD SVG 20010904//EN"
 "http://www.w3.org/TR/2001/REC-SVG-20010904/DTD/svg10.dtd">
<svg version="1.0" xmlns="http://www.w3.org/2000/svg"
 width="3456.000000pt" height="3456.000000pt" viewBox="0 0 3456.000000 3456.000000"
 preserveAspectRatio="xMidYMid meet">
<metadata>
Created by potrace 1.14, written by Peter Selinger 2001-2017
</metadata>
<g transform="translate(0.000000,3456.000000) scale(0.100000,-0.100000)"
fill="#000000" stroke="none">
<path d="M17606 34548 c-11 -36 -13 -58 -6 -63 4 -3 4 -21 0 -40 -4 -19 -4
-37 0 -40 4 -3 4 -21 0 -40 -4 -20 -4 -38 1 -41 5 -3 6 -10 3 -16 -3 -5 -6
-58 -6 -116 0 -63 -4 -110 -10 -113 -6 -4 -22 -3 -37 1 -14 4 -36 4 -48 -1
-12 -4 -25 -4 -28 1 -3 5 -18 5 -34 0 -15 -4 -34 -4 -42 0 -7 5 -20 5 -29 0
-9 -5 -22 -5 -28 -1 -7 4 -35 5 -62 1 -27 -4 -55 -3 -62 1 -6 4 -19 4 -28 -1
-9 -5 -22 -5 -30 0 -8 5 -21 5 -30 0 -9 -5 -22 -5 -30 0 -8 5 -21 5 -29 1 -9
-5 -25 -5 -35 -1 -27 9 -82 -4 -78 -19 1 -6 2 -22 2 -34 0 -12 0 -38 1 -57 0
-19 1 -42 0 -50 -3 -59 -2 -141 3 -149 4 -5 2 -12 -2 -15 -5 -3 -6 -26 -2 -51
4 -25 4 -45 0 -45 -4 0 -5 -13 -2 -30 l4 -29 -85 2 c-47 1 -83 -1 -80 -5 2 -5
-7 -4 -21 2 -16 6 -27 6 -31 0 -4 -6 -13 -7 -23 -1 -11 6 -24 6 -35 0 -9 -6
-17 -6 -17 -2 0 4 -27 8 -59 8 -33 0 -57 -3 -54 -7 2 -5 -7 -4 -21 2 -16 6
-27 6 -31 -1 -4 -6 -13 -6 -23 0 -10 6 -23 6 -34 0 -10 -5 -18 -6 -18 -2 0 4
-13 8 -30 8 -16 0 -30 -4 -30 -8 0 -4 -9 -3 -19 3 -13 7 -22 7 -26 0 -3 -5 -4
-10 -1 -10 3 0 1 -12 -4 -26 -7 -16 -7 -23 0 -19 7 4 7 -3 0 -19 -6 -16 -6
-26 0 -26 6 0 6 -9 0 -25 -6 -16 -6 -25 1 -25 6 0 6 -7 -1 -20 -8 -14 -8 -20
0 -20 7 0 8 -6 0 -19 -7 -13 -7 -22 0 -26 7 -4 7 -12 0 -25 -6 -12 -7 -21 0
-25 5 -3 6 -15 0 -29 -4 -12 -4 -29 0 -36 5 -8 6 -18 3 -24 -9 -14 -9 -65 -1
-59 5 2 4 -7 -1 -20 -6 -14 -7 -28 -3 -32 4 -3 -6 -1 -21 4 -18 7 -26 7 -22 1
4 -7 -2 -7 -19 0 -16 6 -27 6 -31 0 -4 -7 -13 -6 -25 0 -10 6 -21 6 -24 2 -6
-10 -42 -9 -52 1 -4 3 -15 2 -25 -3 -12 -7 -20 -7 -24 0 -4 7 -13 7 -26 0 -10
-6 -19 -7 -19 -3 0 4 -13 8 -30 8 -16 0 -30 -4 -30 -8 0 -4 -9 -3 -19 3 -13 7
-22 7 -26 0 -4 -7 -12 -7 -25 0 -13 7 -21 7 -25 0 -4 -6 -12 -7 -18 -3 -17 10
-47 11 -47 1 0 -5 -9 -4 -20 2 -13 7 -20 7 -20 1 0 -7 -8 -7 -22 -2 -13 5 -34
5 -47 0 -13 -5 -26 -7 -29 -4 -3 3 0 5 6 5 8 0 9 7 2 25 -5 14 -6 25 -2 25 8
0 8 52 0 66 -3 5 -2 18 2 29 4 11 4 32 -1 48 -4 15 -5 27 -1 27 9 0 7 114 -2
128 -3 6 -2 13 3 17 7 4 7 15 1 30 -5 14 -6 25 -2 25 11 0 8 57 -3 58 -56 7
-75 7 -75 0 0 -4 -11 -3 -25 2 -15 6 -26 6 -30 0 -4 -6 -13 -7 -24 -1 -10 6
-23 6 -31 1 -8 -5 -18 -6 -24 -3 -14 9 -66 9 -66 0 0 -4 -9 -3 -20 3 -14 8
-20 8 -20 0 0 -7 -6 -8 -18 -1 -11 6 -24 6 -34 0 -10 -6 -19 -6 -23 0 -4 7
-15 7 -30 1 -14 -5 -25 -6 -25 -2 0 9 -41 8 -56 -1 -5 -3 -16 -2 -24 3 -9 5
-19 5 -26 -1 -8 -7 -14 -6 -19 1 -5 8 -10 8 -20 0 -10 -9 -18 -7 -33 8 -16 16
-18 28 -13 63 4 24 4 63 1 87 -4 23 -4 44 -2 47 3 2 4 60 3 127 -1 68 -2 130
-2 140 0 13 -6 15 -30 8 -16 -5 -29 -6 -29 -2 0 4 -16 7 -35 7 -19 0 -35 -2
-35 -5 0 -7 -79 -4 -86 3 -3 3 -17 2 -30 -3 -14 -6 -26 -6 -29 0 -3 6 -15 6
-30 0 -14 -5 -25 -6 -25 -1 0 5 -16 5 -35 1 -19 -4 -35 -5 -35 -1 0 7 -123 6
-136 -1 -5 -3 -18 -2 -29 2 -11 4 -30 4 -42 -1 -13 -5 -23 -5 -23 -1 0 4 -4 0
-9 -7 -6 -9 -6 -22 -1 -31 5 -9 5 -22 0 -30 -5 -8 -6 -18 -3 -23 7 -12 8 -95
1 -103 -3 -3 -2 -21 2 -40 4 -18 5 -34 1 -34 -3 0 -6 -16 -6 -35 0 -19 3 -35
7 -35 4 0 3 -13 -2 -28 -4 -16 -4 -35 1 -43 4 -8 4 -21 0 -28 -5 -7 -6 -23 -3
-35 4 -16 2 -19 -8 -9 -8 8 -20 9 -37 2 -13 -5 -22 -6 -20 -1 3 4 -8 7 -24 7
-16 0 -29 -4 -29 -8 0 -5 -5 -5 -11 -1 -15 9 -128 11 -123 2 3 -4 -5 -4 -17 0
-12 5 -40 6 -61 2 -21 -4 -38 -5 -38 -1 0 3 -11 6 -25 6 -14 0 -25 -4 -25 -8
0 -4 -8 -3 -18 2 -10 5 -24 6 -32 1 -8 -5 -21 -5 -30 0 -9 5 -23 4 -32 -1 -11
-6 -19 -6 -23 1 -4 7 -12 7 -25 0 -12 -7 -20 -6 -22 0 -2 6 -13 3 -26 -6 -16
-11 -20 -20 -13 -27 7 -7 7 -16 0 -29 -7 -12 -6 -18 1 -18 8 0 8 -6 0 -20 -8
-14 -8 -20 0 -20 8 0 8 -6 0 -20 -8 -14 -8 -20 0 -20 8 0 8 -6 0 -20 -8 -14
-8 -20 0 -20 8 0 8 -6 0 -20 -8 -14 -8 -20 0 -20 8 0 8 -6 0 -20 -8 -14 -8
-20 0 -20 8 0 8 -6 0 -20 -8 -14 -8 -20 0 -20 8 0 8 -6 0 -20 -8 -14 -8 -20 0
-20 8 0 8 -6 0 -20 -8 -14 -8 -20 0 -20 8 0 8 -6 0 -20 -8 -14 -8 -20 0 -20 8
0 8 -6 0 -20 -8 -14 -8 -20 0 -20 8 0 8 -6 0 -20 -8 -14 -8 -20 0 -20 8 0 8
-6 0 -20 -8 -14 -8 -20 0 -20 8 0 8 -6 0 -20 -8 -14 -8 -20 0 -20 7 0 7 -7 -1
-22 -7 -13 -12 -23 -12 -23 0 0 5 -10 12 -22 6 -13 8 -23 4 -23 -4 0 -8 -13
-8 -30 0 -16 4 -30 8 -30 4 0 3 -9 -3 -19 -7 -13 -7 -22 0 -26 7 -4 7 -13 0
-24 -6 -12 -5 -22 1 -28 8 -8 7 -13 0 -17 -8 -5 -8 -13 -1 -26 7 -13 7 -21 0
-25 -6 -4 -8 -11 -4 -16 10 -17 12 -59 2 -59 -5 0 -4 -9 2 -19 7 -13 7 -22 0
-26 -7 -4 -7 -13 0 -26 8 -13 7 -19 0 -19 -7 0 -8 -6 0 -19 7 -13 7 -22 0 -26
-7 -4 -7 -13 0 -26 6 -10 7 -19 3 -19 -4 0 -8 -13 -8 -30 0 -16 2 -30 5 -30 3
0 5 -13 5 -30 0 -16 -4 -30 -8 -30 -4 0 -3 -9 3 -20 8 -14 8 -20 0 -20 -8 0
-8 -6 0 -20 8 -14 8 -20 0 -20 -8 0 -8 -6 0 -20 8 -14 8 -20 0 -20 -8 0 -8 -6
0 -20 8 -14 8 -20 0 -20 -8 0 -8 -6 0 -20 8 -14 8 -20 0 -20 -8 0 -8 -6 0 -20
8 -14 8 -20 0 -20 -8 0 -8 -6 0 -20 6 -11 7 -20 3 -20 -10 0 -10 -47 0 -57 4
-3 2 -12 -4 -19 -7 -8 -7 -14 1 -19 7 -4 7 -12 0 -25 -7 -13 -7 -21 0 -25 6
-4 7 -11 4 -17 -10 -16 -11 -67 -2 -61 5 2 4 -7 -2 -21 -6 -16 -6 -26 0 -26 6
0 6 -9 0 -25 -6 -16 -6 -25 1 -25 6 0 6 -7 -1 -20 -7 -13 -7 -20 -1 -20 7 0 7
-9 1 -25 -6 -16 -6 -26 1 -31 7 -4 7 -10 0 -18 -6 -7 -6 -17 -1 -26 5 -8 6
-19 3 -24 -9 -15 -10 -56 -1 -56 4 0 3 -11 -2 -25 -6 -16 -6 -25 1 -25 6 0 6
-7 -1 -19 -6 -13 -7 -22 0 -26 6 -3 6 -15 0 -30 -6 -16 -6 -27 1 -31 7 -4 6
-10 -1 -19 -8 -9 -8 -15 0 -20 7 -4 7 -12 0 -25 -7 -13 -7 -21 0 -25 6 -4 7
-11 4 -17 -10 -16 -11 -67 -2 -61 5 2 4 -7 -2 -21 -6 -16 -6 -26 0 -26 6 0 6
-9 0 -25 -6 -15 -6 -25 0 -25 5 0 5 -12 0 -30 -5 -19 -5 -28 1 -25 5 4 5 -4
-1 -19 -6 -16 -6 -26 0 -26 6 0 6 -9 0 -25 -6 -16 -6 -25 1 -25 6 0 6 -6 0
-18 -6 -11 -6 -24 0 -34 6 -11 5 -19 -1 -23 -8 -5 -8 -11 0 -20 8 -9 8 -15 0
-20 -7 -4 -7 -13 1 -28 9 -16 9 -22 0 -25 -9 -3 -9 -7 0 -18 6 -8 8 -14 3 -14
-5 0 -9 -11 -9 -25 0 -14 3 -25 7 -25 4 0 3 -11 -2 -24 -5 -15 -5 -27 2 -34 6
-6 6 -12 -1 -16 -8 -5 -8 -13 -1 -26 7 -13 7 -21 0 -25 -7 -4 -7 -12 0 -25 7
-13 7 -21 0 -25 -7 -4 -7 -13 0 -26 7 -12 7 -19 1 -19 -7 0 -7 -9 -1 -25 6
-16 6 -25 -1 -25 -6 0 -6 -7 1 -20 7 -13 7 -20 1 -20 -7 0 -7 -9 -1 -25 6 -16
6 -25 0 -25 -6 0 -6 -10 0 -26 6 -14 7 -23 2 -21 -4 3 -7 -8 -7 -23 0 -15 3
-26 7 -23 5 2 4 -7 -2 -21 -6 -16 -6 -26 0 -26 6 0 6 -9 1 -22 -4 -13 -5 -34
-1 -48 4 -14 3 -33 -2 -42 -6 -12 -5 -18 2 -18 8 0 8 -6 0 -20 -8 -14 -8 -20
0 -20 8 0 8 -6 0 -20 -8 -14 -8 -20 0 -20 8 0 8 -6 0 -20 -8 -14 -8 -20 0 -20
7 0 8 -6 1 -18 -7 -13 -7 -22 0 -29 8 -8 7 -13 0 -17 -8 -5 -8 -13 -1 -27 8
-13 7 -19 0 -19 -8 0 -8 -6 0 -20 7 -12 7 -20 1 -20 -10 0 -7 -32 4 -50 3 -6
3 -10 -2 -10 -4 0 -8 -13 -8 -30 0 -16 4 -30 8 -30 4 0 3 -9 -3 -19 -7 -13 -7
-22 0 -26 7 -4 7 -13 0 -24 -6 -12 -5 -22 1 -28 8 -8 7 -13 0 -17 -8 -5 -8
-13 -1 -26 7 -13 7 -21 0 -25 -7 -4 -7 -12 -1 -23 6 -10 6 -23 0 -34 -6 -12
-6 -18 0 -18 7 0 7 -9 1 -25 -6 -16 -6 -25 1 -25 6 0 6 -7 -1 -19 -6 -12 -6
-22 -1 -25 5 -3 7 -14 5 -24 -4 -13 -16 -17 -60 -17 -29 0 -54 2 -54 5 0 6
-89 4 -95 -2 -3 -3 -22 -2 -42 1 -20 3 -65 4 -100 1 -35 -3 -63 -3 -63 0 0 3
-19 4 -42 3 -87 -5 -103 -5 -113 -3 -35 8 -73 -2 -78 -20 -3 -11 -1 -22 4 -25
4 -3 4 -16 -1 -29 -4 -12 -5 -28 0 -35 4 -7 4 -28 0 -47 -4 -19 -4 -36 1 -39
4 -3 4 -17 -1 -30 -6 -15 -6 -27 0 -30 5 -3 7 -12 3 -20 -9 -24 -9 -145 0
-145 5 0 5 -5 2 -11 -9 -13 -10 -103 -2 -115 3 -6 2 -16 -3 -24 -5 -8 -5 -21
0 -30 5 -9 5 -22 0 -30 -4 -7 -4 -24 1 -37 5 -13 5 -23 -1 -23 -5 0 -5 -12 0
-30 5 -17 5 -30 0 -30 -5 0 -5 -13 0 -30 5 -16 5 -32 0 -35 -5 -3 -5 -19 0
-35 5 -17 6 -30 2 -30 -4 0 -7 -27 -7 -60 0 -33 3 -60 7 -60 4 0 3 -13 -2 -30
-5 -16 -5 -30 0 -30 4 0 6 -8 4 -17 -8 -36 -9 -143 -1 -143 4 0 5 -5 2 -11 -9
-13 -11 -257 -2 -265 3 -3 2 -17 -3 -30 -6 -14 -6 -26 0 -29 6 -3 6 -15 0 -30
-6 -15 -6 -27 0 -30 6 -4 7 -13 1 -24 -6 -10 -6 -23 -1 -31 5 -8 5 -21 0 -30
-5 -9 -5 -22 0 -30 4 -7 4 -24 -1 -37 -5 -13 -5 -23 1 -23 5 0 5 -12 0 -30 -5
-17 -5 -32 0 -35 5 -3 5 -16 0 -30 -6 -16 -6 -25 0 -25 6 0 6 -9 0 -25 -6 -15
-6 -25 0 -25 5 0 5 -12 0 -29 -4 -15 -4 -34 0 -40 4 -7 4 -30 0 -52 -4 -21 -4
-39 1 -39 5 0 4 -11 -1 -25 -6 -15 -6 -27 0 -30 5 -3 7 -12 3 -20 -8 -23 -9
-145 -1 -145 4 0 3 -11 -2 -25 -5 -14 -6 -25 -2 -26 4 0 -2 -4 -13 -8 -11 -5
-29 -5 -40 -1 -11 4 -29 4 -40 0 -11 -4 -31 -4 -45 0 -14 3 -42 3 -62 0 -21
-4 -40 -5 -42 -2 -9 8 -106 7 -106 -1 0 -5 -4 -6 -9 -3 -7 5 -56 7 -111 5 -8
0 -44 0 -80 1 -36 1 -71 1 -77 1 -10 -1 -13 -301 -13 -1442 0 -1408 0 -1441
19 -1436 10 2 25 1 32 -4 7 -4 20 -4 29 1 9 5 22 5 30 0 8 -5 21 -5 30 0 9 5
22 5 30 0 8 -5 21 -5 31 1 11 6 20 5 24 -1 3 -6 15 -6 30 0 13 5 26 6 29 2 5
-9 64 -7 73 2 3 3 14 1 24 -4 11 -7 20 -7 24 0 3 5 15 6 28 1 13 -5 30 -5 39
0 11 6 19 5 23 -1 4 -6 11 -8 16 -4 14 8 89 11 89 3 0 -4 7 -6 16 -5 9 0 20
-9 25 -22 5 -13 5 -21 1 -18 -4 2 -7 -9 -7 -25 0 -16 3 -29 7 -29 4 0 3 -13
-2 -30 -5 -18 -5 -30 0 -30 6 0 6 -10 0 -25 -6 -15 -6 -27 0 -30 6 -3 6 -15 0
-30 -6 -15 -6 -27 0 -30 5 -3 6 -15 0 -29 -4 -12 -4 -29 0 -36 5 -8 6 -19 2
-24 -7 -13 -6 -92 2 -105 4 -5 2 -12 -3 -15 -6 -4 -6 -18 -1 -36 5 -17 5 -30
0 -30 -5 0 -5 -13 0 -30 5 -16 6 -30 2 -30 -8 0 -8 -58 1 -66 3 -3 2 -17 -3
-30 -6 -14 -6 -26 0 -29 6 -3 6 -15 0 -30 -6 -15 -6 -27 0 -30 6 -3 6 -15 0
-30 -6 -15 -6 -27 0 -30 6 -3 6 -15 0 -30 -6 -15 -6 -27 0 -30 5 -3 6 -15 1
-28 -5 -12 -5 -31 -1 -42 4 -11 5 -24 2 -29 -8 -13 -8 -246 0 -246 4 0 5 -6 2
-14 -8 -21 -10 -106 -2 -106 8 0 5 -21 -5 -37 -12 -18 8 -24 80 -23 38 1 77 1
88 1 164 -2 227 -1 235 4 6 3 10 3 10 -2 0 -4 21 -7 47 -6 49 3 112 3 161 1
23 -1 27 -6 27 -30 0 -15 -3 -28 -7 -28 -4 0 -3 -11 2 -25 6 -16 6 -25 0 -25
-6 0 -6 -10 0 -26 6 -14 7 -23 2 -21 -4 3 -7 -17 -7 -43 0 -26 3 -46 7 -43 5
2 4 -7 -2 -21 -6 -16 -6 -26 0 -26 6 0 6 -9 0 -25 -6 -16 -6 -25 1 -25 6 0 6
-7 -1 -19 -7 -13 -7 -22 0 -26 7 -4 7 -13 0 -26 -6 -10 -7 -19 -3 -19 4 0 8
-13 8 -30 0 -16 -4 -30 -8 -30 -4 0 -3 -9 3 -20 8 -14 8 -20 0 -20 -8 0 -8 -6
0 -20 8 -14 8 -20 0 -20 -8 0 -8 -6 0 -20 8 -14 8 -20 0 -20 -8 0 -8 -6 0 -20
8 -14 8 -20 0 -20 -8 0 -8 -6 0 -20 8 -14 8 -20 0 -20 -8 0 -8 -6 0 -20 8 -14
8 -20 0 -20 -8 0 -8 -6 0 -20 6 -11 7 -20 3 -20 -10 0 -10 -47 0 -57 4 -3 2
-12 -4 -19 -7 -8 -7 -14 1 -19 7 -4 7 -12 0 -25 -7 -13 -7 -21 0 -25 6 -4 7
-11 4 -17 -10 -16 -11 -67 -2 -61 5 2 4 -7 -2 -21 -6 -16 -6 -26 0 -26 6 0 6
-9 0 -25 -6 -15 -6 -25 0 -25 5 0 5 -12 0 -30 -5 -19 -5 -28 1 -25 5 4 5 -4
-1 -19 -6 -16 -6 -26 0 -26 6 0 6 -9 0 -25 -6 -17 -6 -25 1 -25 6 0 7 -6 0
-17 -5 -10 -5 -26 0 -40 5 -14 5 -23 -1 -23 -6 0 -6 -10 0 -26 6 -14 6 -23 2
-20 -4 3 -7 -9 -6 -27 3 -37 29 -60 54 -47 10 5 20 6 24 3 9 -9 56 -10 56 -1
0 4 11 3 25 -2 16 -6 25 -6 25 0 0 6 9 6 25 0 16 -6 25 -6 25 1 0 6 7 6 19 -1
13 -7 22 -7 26 0 4 7 13 7 26 0 13 -8 19 -7 19 0 0 7 6 8 19 0 13 -7 22 -7 26
0 4 7 13 7 24 0 12 -6 22 -5 28 1 8 8 13 7 17 0 5 -8 13 -8 26 -1 13 7 21 7
25 0 4 -7 13 -7 26 0 10 6 19 7 19 3 0 -4 16 -8 35 -8 19 0 35 4 35 9 0 5 6 3
13 -3 8 -6 17 -7 22 -3 4 4 5 -8 3 -26 -3 -18 -1 -35 3 -38 4 -2 4 -18 -1 -34
-5 -18 -5 -30 0 -30 6 0 6 -10 0 -25 -6 -15 -6 -27 0 -30 6 -3 6 -15 0 -30 -5
-14 -5 -27 0 -30 5 -3 5 -18 0 -35 -5 -17 -5 -30 0 -30 5 0 5 -13 0 -30 -5
-17 -5 -30 0 -30 5 0 5 -13 0 -30 -5 -16 -5 -30 -1 -30 4 0 7 -10 7 -22 -1
-16 4 -23 17 -22 9 1 17 -1 17 -5 0 -3 13 -6 29 -6 16 0 27 3 24 7 -2 5 7 4
21 -2 16 -6 26 -6 26 0 0 5 6 7 13 4 23 -8 97 -10 97 -2 0 4 10 4 23 0 22 -9
75 -7 84 2 3 3 15 1 28 -4 14 -5 26 -5 33 2 6 6 12 6 16 -1 5 -8 13 -8 28 0
14 7 23 8 30 1 7 -7 19 -7 34 -2 15 6 24 6 24 0 0 -6 9 -6 25 0 14 5 25 6 25
1 0 -5 8 -7 19 -4 11 3 21 -2 24 -11 4 -9 3 -16 -1 -16 -4 0 -6 -64 -4 -142 1
-79 2 -163 1 -188 0 -25 0 -56 1 -70 1 -14 2 -30 3 -37 1 -14 41 -23 58 -12 7
4 22 4 34 -1 12 -5 28 -5 35 0 7 5 23 5 34 0 12 -4 30 -4 42 0 11 5 27 5 34 0
7 -4 24 -5 39 -1 27 7 80 6 88 -3 2 -2 17 -1 32 4 16 4 34 4 41 0 7 -5 23 -5
34 -1 12 4 32 5 46 1 14 -4 34 -4 45 0 26 9 71 -3 68 -18 -2 -7 1 -12 7 -12 6
0 6 -9 0 -25 -6 -16 -6 -34 0 -50 5 -14 6 -25 2 -25 -4 0 -7 -25 -7 -55 0 -30
3 -55 7 -55 4 0 3 -11 -2 -25 -6 -15 -6 -27 0 -30 6 -3 6 -15 0 -30 -6 -15 -6
-27 0 -30 6 -3 6 -15 0 -30 -6 -16 -6 -27 1 -31 6 -4 6 -11 -2 -20 -8 -10 -8
-14 -1 -14 6 0 9 -7 5 -16 -5 -13 4 -15 53 -14 67 0 251 1 274 1 8 0 81 0 161
0 134 -1 147 -3 152 -20 2 -10 0 -25 -4 -34 -6 -10 -5 -18 1 -22 7 -4 7 -12 0
-24 -6 -12 -5 -22 1 -28 8 -8 7 -13 0 -17 -8 -5 -8 -13 -1 -27 7 -12 7 -19 1
-19 -7 0 -7 -9 -1 -25 6 -16 6 -25 0 -25 -6 0 -6 -10 0 -26 6 -14 7 -23 2 -21
-9 6 -8 -45 2 -61 3 -6 2 -13 -4 -17 -7 -4 -7 -12 0 -25 7 -13 7 -21 0 -25 -6
-4 -7 -13 -1 -23 4 -9 6 -22 4 -28 -5 -14 51 -24 69 -13 6 4 19 4 28 -1 9 -5
22 -5 30 0 7 4 24 4 36 0 14 -6 26 -5 29 0 3 6 15 6 30 0 15 -6 27 -6 30 0 3
6 15 6 30 0 14 -5 27 -5 30 0 3 5 18 5 35 0 17 -5 30 -5 30 0 0 5 13 5 30 0
17 -5 30 -5 30 0 0 5 13 5 30 0 17 -5 30 -5 30 0 0 5 12 5 28 1 31 -8 64 -7
81 3 6 4 11 2 11 -4 0 -6 4 -8 10 -5 6 4 10 -20 9 -64 -1 -38 2 -74 6 -80 3
-6 3 -11 -2 -11 -4 0 -8 -20 -8 -45 0 -25 3 -45 6 -45 4 0 3 -17 0 -37 -4 -21
-4 -55 -1 -75 4 -21 3 -38 -2 -38 -5 0 -6 -4 -3 -10 9 -15 12 -80 4 -80 -4 0
-4 -13 1 -29 4 -15 4 -34 0 -41 -4 -6 -4 -27 0 -46 4 -19 4 -34 0 -34 -4 0 -4
-15 0 -34 4 -19 4 -39 0 -46 -4 -7 -4 -27 0 -46 4 -19 5 -34 1 -34 -3 0 -6
-20 -6 -45 0 -25 3 -45 6 -45 4 0 3 -17 0 -37 -4 -21 -4 -55 -1 -75 4 -21 5
-40 2 -43 -5 -4 -6 -198 -1 -221 1 -5 0 -13 -1 -19 -4 -21 0 -137 5 -146 4 -5
2 -9 -4 -9 -6 0 -7 -11 -2 -27 5 -16 5 -37 1 -48 -4 -11 -4 -31 0 -44 3 -14 3
-44 0 -68 -4 -24 -3 -43 1 -43 5 0 6 -6 4 -13 -7 -17 -11 -147 -5 -147 6 0 4
-99 -3 -106 -2 -3 -1 -21 3 -40 4 -19 4 -36 0 -39 -4 -3 -4 -20 0 -39 4 -19 4
-40 0 -46 -4 -7 -4 -25 0 -41 5 -15 6 -30 3 -33 -5 -4 -7 -161 -3 -176 6 -20
3 -80 -3 -80 -4 0 -4 -8 1 -18 5 -9 6 -28 2 -42 -4 -14 -3 -33 2 -42 4 -9 4
-19 -1 -22 -4 -3 -5 -24 -1 -46 4 -22 5 -40 1 -40 -7 0 -5 -206 3 -225 2 -7 1
-29 -4 -49 -4 -20 -4 -38 0 -41 4 -3 4 -21 0 -40 -4 -19 -4 -37 0 -40 4 -3 4
-21 0 -40 -4 -20 -4 -38 1 -41 5 -3 6 -10 3 -16 -9 -14 -8 -204 1 -218 3 -5 1
-10 -5 -10 -7 0 -8 -6 -2 -16 5 -9 6 -31 2 -48 -3 -17 -4 -42 0 -56 3 -14 3
-44 0 -67 -4 -24 -3 -43 1 -43 5 0 6 -6 4 -13 -8 -18 -11 -147 -4 -147 3 0 3
-21 -1 -48 -3 -26 -3 -61 1 -79 3 -17 3 -37 -1 -43 -4 -7 -4 -27 0 -46 4 -19
5 -34 1 -34 -3 0 -6 -20 -6 -45 0 -25 3 -45 6 -45 4 0 3 -17 0 -37 -4 -21 -4
-55 -1 -75 4 -21 4 -38 0 -38 -4 0 -4 -18 0 -40 4 -22 5 -42 2 -45 -7 -7 -4
-133 3 -145 3 -6 2 -10 -3 -10 -6 0 -7 -14 -2 -34 4 -19 4 -39 0 -46 -4 -7 -4
-27 0 -46 4 -19 5 -34 1 -34 -3 0 -6 -20 -6 -45 0 -25 3 -45 6 -45 3 0 3 -17
-1 -37 -3 -21 -3 -55 1 -75 3 -21 4 -40 1 -42 -2 -3 -4 -47 -3 -98 1 -127 1
-174 -2 -236 -1 -28 1 -53 5 -55 3 -1 3 -21 -1 -44 -5 -24 -5 -43 -1 -43 4 0
5 -15 1 -32 -7 -33 -5 -92 4 -115 2 -7 1 -13 -4 -13 -5 0 -5 -18 -1 -40 4 -22
5 -40 1 -40 -7 0 -5 -206 3 -226 3 -8 2 -14 -2 -14 -7 0 -7 -154 1 -237 2 -24
0 -48 -4 -54 -3 -6 -3 -26 1 -44 4 -19 3 -38 -2 -43 -6 -6 -6 -12 0 -16 5 -3
6 -22 2 -46 -4 -22 -4 -40 0 -40 4 0 4 -16 0 -35 -4 -19 -4 -37 0 -40 4 -3 4
-21 0 -40 -4 -19 -4 -37 0 -40 4 -3 4 -21 0 -40 -4 -19 -4 -37 0 -40 4 -3 4
-21 0 -40 -4 -19 -4 -37 0 -40 4 -3 5 -20 1 -37 -7 -33 -5 -92 4 -115 2 -7 1
-13 -4 -13 -5 0 -5 -18 -1 -40 4 -22 5 -40 1 -40 -7 0 -5 -206 3 -226 3 -8 2
-14 -3 -14 -4 0 -5 -20 -1 -45 4 -25 3 -45 -1 -45 -5 0 -5 -10 0 -22 5 -13 5
-32 1 -43 -4 -11 -4 -34 1 -52 4 -18 3 -49 -1 -68 -4 -19 -4 -37 0 -40 4 -3 4
-21 0 -40 -4 -19 -4 -37 0 -40 4 -3 4 -21 0 -40 -4 -20 -4 -38 1 -41 5 -3 7
-9 5 -13 -3 -4 -6 -23 -7 -42 -2 -26 -7 -35 -21 -35 -10 0 -18 3 -18 6 0 3
-25 5 -55 5 -30 0 -55 -3 -55 -7 0 -4 -11 -3 -25 2 -15 6 -26 6 -30 0 -4 -6
-13 -7 -23 -1 -11 6 -24 6 -34 0 -10 -6 -19 -6 -23 0 -4 7 -15 7 -31 1 -14 -6
-23 -7 -21 -2 3 4 -21 7 -54 7 -32 0 -59 -4 -59 -8 0 -4 -8 -3 -18 2 -10 5
-24 6 -32 1 -8 -5 -21 -5 -31 1 -11 6 -20 5 -24 -1 -4 -7 -13 -7 -24 0 -12 6
-22 5 -29 -2 -9 -9 -12 -9 -12 1 0 7 -5 9 -11 5 -8 -5 -10 1 -7 20 3 14 1 29
-4 32 -4 3 -6 10 -2 15 8 14 9 103 1 116 -4 7 -3 14 2 18 7 4 7 15 1 31 -6 14
-7 23 -2 21 4 -3 7 8 7 24 0 16 -4 29 -10 29 -7 0 -7 3 0 8 12 8 14 63 3 56
-4 -3 -4 6 2 20 6 16 6 26 0 26 -6 0 -6 9 0 25 6 16 6 25 -1 25 -6 0 -6 7 1
20 7 13 7 20 1 20 -7 0 -7 9 -1 25 6 16 6 25 -1 25 -6 0 -6 6 0 19 6 10 8 21
5 24 -10 10 -11 42 -2 60 6 11 5 17 -2 17 -8 0 -8 6 0 20 8 14 8 20 0 20 -8 0
-8 6 0 20 8 14 8 20 0 20 -8 0 -8 6 0 20 8 14 8 20 0 20 -8 0 -8 6 0 20 8 14
8 20 0 20 -8 0 -8 6 0 20 8 14 8 20 0 20 -8 0 -8 6 0 20 8 14 8 20 0 20 -7 0
-7 7 1 23 7 12 12 22 12 22 0 0 -5 10 -12 23 -6 12 -8 22 -4 22 4 0 8 14 8 30
0 17 -4 30 -8 30 -4 0 -3 8 2 18 6 11 6 24 0 34 -6 10 -6 19 0 23 7 4 7 15 1
31 -6 14 -7 23 -2 21 4 -3 7 8 7 23 0 15 -3 26 -7 23 -5 -2 -4 6 1 19 5 14 5
31 0 40 -6 11 -5 19 1 23 7 4 7 13 0 26 -7 12 -7 19 -1 19 7 0 7 9 1 25 -6 17
-6 25 1 25 6 0 7 5 3 11 -3 6 -19 9 -35 7 -16 -3 -29 -2 -29 1 0 3 -13 6 -30
6 -16 0 -30 -2 -30 -5 0 -3 -18 -5 -40 -5 -22 0 -40 3 -40 7 0 4 -13 3 -30 -2
-19 -5 -30 -5 -30 1 0 6 -4 8 -8 5 -10 -6 -83 -8 -134 -4 -21 2 -38 1 -38 -2
0 -3 -18 -5 -40 -5 -22 0 -40 2 -40 5 0 5 -25 4 -97 -3 -20 -2 -29 1 -25 7 9
16 10 46 1 46 -5 0 -5 11 0 23 5 13 6 30 1 37 -4 7 -6 19 -4 25 8 21 10 95 2
95 -4 0 -3 11 2 25 6 16 6 25 0 25 -6 0 -6 9 -1 23 5 12 5 32 0 45 -5 12 -5
22 -1 22 4 0 7 24 7 54 0 30 -2 53 -5 51 -3 -2 -12 0 -20 5 -9 5 -19 5 -26 -1
-8 -7 -14 -6 -19 1 -4 7 -12 7 -25 0 -13 -7 -21 -7 -25 0 -4 7 -12 7 -25 0
-13 -7 -21 -7 -25 0 -4 7 -13 7 -26 0 -10 -6 -19 -7 -19 -3 0 7 -44 9 -60 3
-3 -1 -9 -1 -15 0 -29 6 -65 5 -65 -2 0 -5 -9 -4 -20 2 -14 8 -20 8 -20 0 0
-8 -6 -8 -20 0 -14 8 -20 8 -20 0 0 -8 -6 -8 -20 0 -14 8 -20 8 -20 0 0 -8 -6
-8 -20 0 -14 8 -20 8 -20 0 0 -8 -6 -8 -20 0 -13 7 -20 7 -20 1 0 -7 -8 -7
-22 -2 -13 5 -33 5 -45 0 -20 -7 -21 -5 -20 47 1 30 0 54 -4 54 -3 0 -2 25 1
55 3 31 4 57 2 60 -3 2 -4 35 -3 72 2 120 1 175 -4 183 -3 5 -1 11 5 15 6 4 7
12 3 18 -4 6 -6 28 -4 47 7 77 6 210 -2 210 -5 0 -6 4 -3 9 6 10 8 85 4 199
-2 45 -1 82 2 82 5 0 4 59 -2 193 -2 31 -1 57 2 57 9 0 2 122 -7 131 -5 5 -52
9 -104 10 -140 0 -307 0 -326 0 -79 -3 -197 2 -211 8 -2 0 1 8 6 18 5 9 6 29
2 44 -5 15 -6 30 -3 33 7 7 7 115 0 122 -3 4 -2 17 3 30 6 14 6 26 0 29 -6 3
-6 15 0 30 5 14 5 27 0 30 -5 3 -5 18 0 35 5 17 5 30 0 30 -5 0 -5 13 0 30 5
18 5 30 -1 30 -5 0 -9 5 -9 11 0 5 3 8 8 6 4 -3 7 10 7 29 0 19 -3 34 -7 34
-4 0 -3 13 2 28 4 16 4 35 -1 43 -4 8 -4 21 1 28 4 8 4 27 0 42 -5 16 -5 29 0
29 5 0 5 12 1 28 -7 29 -6 90 3 99 2 3 1 15 -4 28 -5 13 -6 26 -3 29 8 7 8
135 0 142 -3 3 -3 12 0 20 8 20 9 124 1 124 -4 0 -3 14 2 30 5 17 6 30 2 30
-4 0 -7 16 -7 35 0 19 3 35 7 35 4 0 3 14 -2 30 -5 17 -5 30 0 30 5 0 5 13 0
29 -4 16 -7 31 -5 33 2 2 -8 3 -21 3 -13 0 -24 -4 -24 -8 0 -4 -8 -3 -18 2
-13 7 -22 7 -29 0 -8 -8 -13 -7 -17 0 -5 8 -13 8 -27 1 -13 -8 -19 -7 -19 0 0
8 -6 8 -20 0 -14 -8 -20 -8 -20 0 0 8 -6 8 -20 0 -14 -8 -20 -8 -20 0 0 7 -6
8 -19 0 -14 -7 -22 -7 -26 0 -5 8 -11 8 -20 0 -9 -8 -20 -8 -32 -2 -12 7 -25
7 -35 1 -10 -6 -19 -6 -23 0 -4 7 -15 7 -30 1 -16 -6 -25 -6 -25 1 0 6 -7 6
-20 -1 -13 -7 -20 -7 -20 -1 0 7 -9 7 -25 1 -14 -5 -25 -6 -25 -2 0 9 -47 8
-56 -1 -4 -3 -14 -2 -24 3 -10 5 -20 6 -24 2 -4 -3 -3 5 2 18 5 14 6 35 1 48
-5 13 -5 22 2 22 6 0 6 7 -1 20 -8 14 -8 20 0 20 8 0 8 6 0 20 -8 14 -8 20 0
20 8 0 8 6 0 20 -8 14 -8 20 0 20 8 0 8 6 0 20 -8 14 -8 20 0 20 8 0 8 6 0 20
-6 11 -7 20 -2 20 7 0 8 36 2 65 -1 6 -1 12 0 15 6 16 4 60 -3 60 -4 0 -3 9 3
19 6 13 7 22 0 26 -6 4 -6 15 0 30 6 16 6 25 -1 25 -6 0 -6 6 0 18 7 13 7 22
0 29 -8 8 -7 13 0 17 8 5 8 13 1 27 -8 13 -7 19 0 19 8 0 8 6 0 20 -7 13 -7
20 -1 20 7 0 7 9 1 25 -6 16 -6 25 0 25 6 0 6 10 0 26 -6 14 -7 23 -2 21 4 -3
7 8 7 23 0 15 -3 26 -7 23 -5 -2 -4 7 2 21 6 18 6 26 -1 26 -6 0 -7 5 -4 10 8
14 10 114 2 126 -3 6 -2 16 3 24 5 8 5 22 -1 32 -6 12 -6 18 0 18 7 0 7 9 1
25 -6 16 -6 25 0 25 6 0 6 10 0 26 -6 14 -7 23 -2 21 4 -3 7 8 7 23 0 15 -3
26 -7 23 -5 -2 -4 7 2 21 6 16 6 26 0 26 -6 0 -6 10 0 26 7 16 7 23 0 19 -7
-4 -7 3 0 19 6 16 6 26 0 26 -6 0 -6 9 0 25 6 16 6 25 0 25 -5 0 -7 7 -3 16 5
14 1 16 -26 12 -17 -3 -34 -1 -37 3 -2 4 -18 4 -34 -1 -17 -5 -30 -6 -30 -2 0
4 -27 7 -60 7 -33 0 -60 -3 -60 -7 0 -4 -6 -5 -14 -2 -21 8 -106 10 -106 2 0
-4 -13 -3 -29 2 -16 4 -32 6 -35 3 -3 -3 -28 -5 -56 -4 -27 1 -58 1 -67 1 -20
0 -52 1 -70 2 -6 1 -13 12 -16 24 -2 13 -1 22 2 20 3 -2 6 11 6 30 0 19 -3 34
-7 34 -4 0 -3 11 2 25 6 15 6 34 0 49 -5 13 -6 27 -3 30 3 3 6 63 6 133 -1
124 -1 128 -22 127 -11 0 -21 3 -21 8 0 5 -9 4 -20 -2 -14 -8 -20 -8 -20 0 0
8 -6 8 -20 0 -14 -8 -20 -8 -20 0 0 8 -6 8 -20 0 -14 -8 -20 -8 -20 0 0 8 -6
8 -20 0 -14 -8 -20 -8 -20 0 0 8 -6 8 -20 0 -14 -8 -20 -8 -20 0 0 8 -6 8 -20
0 -14 -8 -20 -8 -20 0 0 8 -6 8 -20 0 -14 -8 -20 -8 -20 0 0 8 -6 8 -20 0 -14
-8 -20 -8 -20 0 0 8 -6 8 -20 0 -14 -8 -20 -8 -20 0 0 8 -6 8 -20 0 -14 -8
-20 -8 -20 0 0 8 -6 8 -20 0 -14 -8 -20 -8 -20 0 0 8 -6 8 -20 0 -14 -8 -20
-8 -20 0 0 8 -6 8 -20 0 -14 -8 -20 -8 -20 0 0 8 -6 8 -20 0 -14 -8 -20 -8
-20 0 0 8 -6 8 -20 0 -20 -11 -20 -21 -20 -2406 0 -2123 2 -2395 15 -2390 8 3
15 1 15 -4 0 -6 9 -6 25 0 16 6 25 6 25 0 0 -6 10 -6 26 0 14 6 23 7 21 2 -6
-9 45 -8 61 2 6 3 13 2 17 -4 4 -7 12 -7 25 0 13 7 21 7 25 0 5 -8 11 -8 20 0
9 7 15 7 19 1 6 -10 37 -8 56 4 6 3 10 1 10 -5 0 -8 6 -8 20 0 14 8 20 8 20 0
0 -8 6 -8 20 0 14 8 20 8 20 0 0 -8 6 -8 20 0 14 8 20 8 20 0 0 -8 6 -8 20 0
14 8 20 8 20 0 0 -8 6 -8 20 0 14 8 20 8 20 0 0 -7 6 -8 18 -1 13 7 22 7 29 0
8 -8 13 -7 17 0 13 20 27 12 16 -8 -6 -13 -7 -22 0 -26 6 -3 6 -15 0 -30 -6
-15 -6 -27 0 -30 6 -3 6 -15 0 -30 -6 -15 -6 -27 0 -30 6 -4 7 -13 1 -24 -6
-10 -6 -23 -1 -31 5 -8 5 -21 0 -30 -5 -9 -5 -22 0 -30 5 -8 6 -18 3 -22 -7
-12 -8 -402 0 -414 3 -6 2 -16 -3 -24 -5 -8 -5 -21 0 -30 5 -9 5 -22 0 -30 -4
-7 -4 -24 1 -37 5 -13 5 -23 -1 -23 -5 0 -5 -12 0 -30 5 -17 5 -30 0 -30 -5 0
-5 -13 0 -30 5 -16 5 -32 0 -35 -5 -3 -5 -19 0 -35 5 -17 6 -30 2 -30 -4 0 -7
-27 -7 -60 0 -33 3 -60 7 -60 4 0 3 -13 -2 -30 -5 -16 -6 -30 -2 -30 8 0 7
-88 -1 -96 -3 -4 -2 -17 3 -30 5 -13 6 -24 2 -24 -4 0 -7 -14 -7 -30 0 -21 6
-32 19 -36 25 -8 201 -8 214 0 6 3 13 2 16 -3 3 -5 21 -6 38 -2 18 4 48 4 66
0 18 -3 35 -3 37 1 3 5 18 5 34 0 15 -4 34 -4 42 0 7 5 16 7 20 4 4 -2 43 -5
87 -6 77 -1 80 -2 72 -22 -4 -12 -4 -31 1 -43 5 -14 5 -23 -2 -23 -6 0 -6 -7
1 -20 6 -11 7 -20 3 -20 -9 0 -8 -63 1 -79 4 -5 2 -12 -3 -16 -7 -4 -7 -15 -1
-31 6 -14 7 -23 2 -21 -4 3 -7 -8 -7 -23 0 -15 3 -26 7 -23 5 2 4 -7 -2 -21
-6 -16 -6 -26 0 -26 6 0 6 -9 0 -25 -6 -16 -6 -25 0 -25 5 0 6 -9 1 -22 -6
-16 -4 -27 8 -36 9 -7 10 -11 4 -7 -7 3 -13 0 -14 -7 -4 -64 -3 -76 3 -71 5 2
4 -7 -2 -21 -6 -16 -6 -26 0 -26 6 0 6 -9 0 -25 -6 -16 -6 -25 1 -25 6 0 6 -7
-1 -19 -7 -13 -7 -22 0 -26 7 -4 7 -13 0 -26 -6 -10 -7 -19 -3 -19 4 0 8 -13
8 -30 0 -16 -4 -30 -8 -30 -4 0 -3 -9 3 -20 8 -14 8 -20 0 -20 -8 0 -8 -6 0
-20 8 -14 8 -20 0 -20 -8 0 -8 -6 0 -20 8 -14 8 -20 0 -20 -8 0 -8 -6 0 -20 8
-14 8 -20 0 -20 -8 0 -8 -6 0 -20 8 -14 8 -20 0 -20 -8 0 -8 -6 0 -20 8 -14 8
-20 0 -20 -8 0 -8 -6 0 -20 6 -11 7 -20 2 -20 -10 0 -8 -42 3 -59 3 -6 1 -11
-5 -11 -7 0 -8 -6 0 -19 7 -14 7 -22 0 -26 -8 -5 -8 -11 0 -20 8 -9 8 -15 0
-20 -7 -4 -7 -12 0 -25 7 -13 7 -21 0 -25 -7 -4 -7 -12 0 -25 7 -13 7 -21 0
-25 -7 -4 -7 -13 0 -26 7 -12 7 -19 1 -19 -7 0 -7 -9 -1 -25 6 -16 6 -25 -1
-25 -6 0 -6 -7 1 -20 7 -13 7 -20 1 -20 -7 0 -7 -9 -1 -25 6 -16 6 -25 0 -25
-6 0 -6 -10 0 -26 6 -14 7 -23 2 -21 -4 3 -7 -8 -7 -23 0 -15 3 -26 7 -23 5 2
4 -7 -2 -21 -6 -18 -6 -26 1 -26 6 0 7 -5 4 -10 -9 -15 -10 -98 -2 -106 4 -4
2 -13 -4 -20 -7 -8 -7 -14 1 -19 7 -4 7 -12 0 -25 -7 -13 -7 -21 0 -25 6 -4 7
-11 4 -17 -10 -16 -11 -67 -2 -61 5 2 4 -7 -2 -21 -6 -16 -6 -26 0 -26 6 0 6
-9 0 -25 -5 -14 -6 -25 -2 -25 4 0 7 -13 7 -30 0 -16 -3 -30 -7 -30 -4 0 -3
-11 2 -25 6 -16 6 -25 0 -25 -6 0 -6 -10 0 -26 6 -14 7 -23 2 -21 -8 6 -8 -50
1 -59 3 -4 2 -15 -3 -25 -7 -12 -7 -20 0 -24 7 -5 8 -11 1 -19 -6 -7 -6 -18
-1 -25 4 -8 6 -20 4 -26 -9 -21 -10 -94 -2 -89 4 3 4 -6 -2 -20 -6 -16 -6 -26
0 -26 6 0 6 -9 1 -23 -5 -13 -5 -30 0 -39 6 -11 5 -19 -1 -23 -7 -4 -7 -13 0
-26 7 -12 7 -19 1 -19 -7 0 -7 -9 -1 -25 6 -16 6 -25 0 -25 -6 0 -6 -10 0 -26
6 -14 7 -23 2 -21 -4 3 -7 -8 -7 -23 0 -15 3 -26 7 -23 5 2 4 -7 -2 -21 -5
-15 -6 -26 -1 -26 5 0 7 -9 4 -21 -4 -14 -12 -19 -24 -16 -11 3 -21 1 -24 -3
-3 -5 -19 -5 -35 0 -19 5 -30 5 -30 -1 0 -6 -5 -7 -11 -4 -14 9 -139 12 -139
3 0 -4 -12 -3 -27 3 -16 6 -30 10 -33 9 -3 -2 -15 -6 -27 -11 -13 -5 -23 -5
-23 -1 0 4 -13 7 -30 7 -16 0 -30 -3 -30 -7 0 -4 -10 -4 -23 1 -13 5 -30 5
-38 1 -8 -5 -21 -5 -29 0 -7 4 -24 4 -37 -1 -12 -5 -23 -5 -23 0 0 10 -48 2
-56 -10 -9 -15 -10 -99 -1 -99 5 0 5 -5 2 -10 -8 -13 -10 -408 -2 -416 3 -3 2
-17 -3 -30 -6 -14 -6 -26 0 -29 6 -3 6 -15 0 -30 -6 -15 -6 -27 0 -30 6 -4 7
-13 1 -24 -6 -10 -6 -23 -1 -31 5 -8 5 -21 0 -30 -5 -9 -5 -22 0 -30 4 -7 4
-24 0 -36 -6 -14 -5 -26 0 -29 6 -3 6 -15 0 -29 -5 -13 -6 -27 -2 -30 10 -11
11 -36 1 -36 -6 0 -6 -7 0 -18 6 -11 6 -24 0 -34 -6 -10 -6 -19 0 -23 7 -3 7
-15 1 -29 -5 -13 -6 -27 -2 -30 3 -4 5 -26 3 -49 -6 -95 -6 -107 2 -107 4 0 5
-5 1 -11 -8 -13 -9 -262 -1 -275 3 -6 2 -16 -3 -24 -5 -8 -5 -21 0 -30 5 -9 5
-22 0 -30 -4 -7 -4 -24 1 -37 5 -13 5 -23 -1 -23 -5 0 -5 -12 0 -30 5 -17 5
-30 0 -30 -5 0 -5 -13 0 -30 5 -16 5 -32 0 -35 -5 -3 -5 -19 0 -35 5 -17 6
-30 2 -30 -4 0 -7 -27 -7 -60 0 -33 3 -60 7 -60 4 0 3 -13 -2 -30 -5 -16 -5
-30 0 -30 4 0 6 -8 4 -17 -8 -36 -9 -143 -1 -143 4 0 5 -5 2 -11 -9 -13 -11
-257 -2 -265 3 -3 2 -17 -3 -30 -6 -14 -6 -26 0 -29 6 -3 6 -15 0 -30 -6 -15
-6 -27 0 -30 6 -4 7 -13 1 -24 -6 -10 -6 -23 -1 -31 5 -8 5 -21 0 -30 -5 -9
-5 -22 0 -30 5 -8 5 -21 0 -30 -5 -9 -5 -22 0 -30 5 -8 5 -21 0 -30 -5 -9 -4
-23 1 -32 6 -10 6 -19 0 -22 -12 -8 -3 -42 12 -44 58 -6 87 -6 87 1 0 4 9 3
19 -3 13 -6 22 -7 26 0 4 6 15 6 30 0 16 -6 25 -6 25 0 0 6 9 6 25 0 15 -6 26
-6 30 1 4 5 11 6 17 3 15 -9 148 -10 148 -1 0 4 9 3 19 -3 13 -7 22 -7 26 0 4
7 13 7 24 0 12 -6 22 -5 28 1 8 8 13 8 17 0 5 -7 15 -7 31 -1 14 5 25 6 25 1
0 -4 11 -7 24 -6 17 2 26 -3 29 -16 3 -10 2 -19 -1 -19 -4 0 -7 -16 -7 -35 0
-19 2 -35 5 -35 7 0 4 -55 -4 -68 -3 -6 -2 -13 4 -17 7 -4 7 -12 0 -26 -8 -13
-7 -19 0 -19 8 0 8 -6 0 -20 -8 -14 -8 -20 0 -20 8 0 8 -6 0 -20 -8 -14 -8
-20 0 -20 8 0 8 -6 0 -20 -8 -14 -8 -20 0 -20 8 0 8 -6 0 -20 -8 -14 -8 -20 0
-20 8 0 8 -6 0 -20 -8 -14 -8 -20 0 -20 8 0 8 -6 0 -20 -8 -14 -8 -26 0 -40 8
-14 8 -20 0 -20 -7 0 -8 -6 0 -19 7 -14 7 -22 0 -26 -8 -5 -8 -11 0 -20 8 -9
8 -15 0 -20 -7 -4 -7 -12 0 -25 7 -13 7 -21 0 -25 -7 -4 -7 -12 0 -25 7 -13 7
-21 0 -25 -7 -4 -7 -13 0 -26 7 -12 7 -19 1 -19 -7 0 -7 -9 -1 -25 6 -16 6
-25 -1 -25 -6 0 -6 -7 1 -20 7 -13 7 -20 1 -20 -7 0 -7 -9 -1 -25 6 -16 6 -25
0 -25 -6 0 -6 -10 0 -26 6 -14 7 -23 2 -21 -4 3 -7 -8 -7 -23 0 -15 3 -26 7
-23 5 2 4 -7 -2 -21 -6 -18 -6 -26 1 -26 6 0 7 -5 4 -10 -9 -15 -10 -98 -2
-106 4 -4 2 -13 -4 -20 -7 -8 -7 -14 1 -19 7 -4 7 -12 0 -25 -7 -13 -7 -21 0
-25 6 -4 7 -11 4 -17 -10 -16 -11 -67 -2 -61 5 2 4 -7 -2 -21 -6 -16 -6 -26 0
-26 6 0 6 -9 0 -24 -13 -36 7 -55 58 -53 23 1 42 0 42 -3 0 -3 28 -4 62 -3 35
1 97 2 138 2 41 0 91 1 110 2 19 1 42 1 50 0 8 0 53 0 98 0 64 0 83 -3 79 -13
-2 -7 0 -21 5 -31 5 -10 5 -17 -1 -17 -6 0 -6 -11 -1 -30 5 -17 5 -30 0 -30
-5 0 -5 -13 0 -30 5 -17 5 -32 0 -35 -5 -3 -5 -16 0 -30 6 -15 6 -27 0 -30 -5
-3 -6 -15 -1 -27 4 -12 5 -38 1 -59 -4 -21 -4 -43 1 -50 4 -7 4 -20 -1 -30 -5
-9 -7 -19 -4 -22 3 -3 7 -13 8 -23 3 -18 46 -41 46 -24 0 5 13 5 30 0 18 -5
30 -5 30 0 0 6 10 6 23 1 13 -5 30 -5 37 -1 8 5 21 5 30 0 9 -5 22 -5 30 0 8
5 21 5 31 0 9 -5 18 -7 20 -5 6 5 73 7 122 3 20 -2 37 0 37 4 0 3 13 3 30 -2
17 -5 32 -5 35 0 3 5 15 6 29 0 12 -4 28 -5 36 0 23 14 65 -4 66 -31 3 -46 6
-154 4 -159 -6 -22 -3 -130 3 -130 5 0 6 -4 2 -9 -3 -6 -6 -38 -6 -72 -1 -49
3 -65 17 -76 11 -8 21 -9 29 -3 6 5 17 5 25 0 9 -5 19 -5 26 1 8 7 14 6 19 -1
4 -7 12 -7 25 0 13 7 21 7 25 0 4 -7 12 -7 25 0 13 7 21 7 25 0 5 -8 11 -8 20
0 9 8 15 8 20 0 4 -7 12 -7 24 0 10 5 21 6 25 3 10 -11 36 -12 36 -2 0 5 11 4
25 -1 16 -6 25 -6 25 1 0 6 7 6 19 -1 13 -7 22 -7 26 0 4 6 12 7 23 1 9 -5 26
-5 40 0 14 5 21 5 17 0 -3 -6 6 -6 25 -1 16 5 32 5 35 0 3 -5 18 -5 33 0 33 9
37 -2 29 -78 -2 -18 0 -35 5 -38 4 -3 4 -13 -1 -22 -6 -11 -6 -24 0 -35 6 -9
6 -17 2 -17 -4 0 -8 -25 -8 -55 0 -30 3 -55 7 -55 4 0 3 -11 -2 -25 -6 -15 -6
-26 0 -30 6 -4 7 -13 1 -23 -6 -11 -6 -24 0 -34 6 -10 6 -19 0 -22 -12 -8 -3
-42 12 -44 57 -6 85 -6 81 0 -3 5 6 4 20 -2 16 -6 26 -6 26 0 0 5 6 7 13 4 23
-8 97 -10 97 -2 0 4 10 4 23 -1 13 -5 30 -5 39 0 10 6 19 6 23 0 4 -7 15 -7
30 -1 16 6 25 6 25 0 0 -6 10 -6 26 0 14 6 23 6 20 2 -5 -9 69 -6 84 3 6 3 10
2 10 -4 0 -7 8 -7 25 -1 13 5 27 6 29 1 3 -5 18 -6 33 -3 16 2 25 1 21 -3 -4
-5 -3 -14 3 -22 9 -9 8 -13 0 -13 -8 0 -9 -5 -1 -19 7 -13 7 -22 0 -26 -7 -4
-7 -13 0 -26 6 -10 7 -19 2 -19 -10 0 -8 -42 2 -59 4 -5 2 -12 -4 -16 -7 -4
-7 -12 0 -26 7 -12 7 -19 1 -19 -7 0 -7 -9 -1 -25 5 -14 6 -25 2 -25 -4 0 -7
-11 -7 -25 0 -14 3 -25 7 -25 4 0 4 -10 0 -22 -7 -23 -7 -54 1 -93 3 -11 0
-28 -5 -37 -6 -12 -5 -18 2 -18 8 0 8 -6 0 -20 -8 -14 -8 -20 0 -20 8 0 8 -6
0 -20 -8 -14 -8 -20 0 -20 8 0 8 -6 0 -20 -8 -14 -8 -20 0 -20 8 0 8 -6 0 -20
-8 -14 -8 -20 0 -20 8 0 8 -6 0 -20 -8 -14 -8 -20 0 -20 8 0 8 -6 0 -20 -8
-14 -8 -20 0 -20 8 0 8 -6 0 -20 -8 -14 -8 -20 0 -20 8 0 8 -6 0 -20 -8 -14
-8 -20 0 -20 8 0 8 -6 0 -20 -8 -14 -8 -20 0 -20 8 0 8 -6 0 -20 -8 -14 -8
-20 0 -20 8 0 8 -6 0 -20 -8 -14 -8 -20 0 -20 8 0 8 -6 0 -20 -8 -14 -8 -20 0
-20 8 0 8 -6 0 -20 -8 -14 -8 -20 0 -20 8 0 8 -6 0 -20 -8 -14 -8 -20 0 -20 6
0 8 -4 5 -10 -11 -19 -14 -50 -4 -55 5 -4 6 -11 3 -17 -10 -16 -11 -68 -1 -68
4 0 3 -9 -3 -19 -7 -13 -7 -22 0 -26 7 -4 7 -13 0 -24 -6 -12 -5 -22 1 -28 8
-8 8 -13 0 -17 -7 -4 -7 -15 -1 -31 6 -15 5 -25 -1 -27 -5 -2 -2 -13 6 -25 13
-18 20 -20 45 -13 17 5 30 5 30 0 0 -5 13 -5 30 0 17 5 30 6 30 2 0 -4 16 -7
35 -7 19 0 35 3 35 7 0 4 13 3 29 -2 16 -4 32 -5 36 -2 7 7 91 6 104 -2 5 -4
12 -2 16 3 3 7 15 7 30 1 14 -5 27 -5 30 0 3 5 18 5 35 0 17 -5 30 -5 30 0 0
5 13 5 30 0 17 -5 30 -5 30 0 0 4 12 5 27 1 33 -9 34 -15 34 -153 0 -38 0 -74
0 -80 0 -7 -1 -32 -3 -55 -2 -24 0 -43 5 -43 4 0 6 -4 3 -8 -5 -8 -6 -38 -6
-122 0 -21 3 -30 8 -23 5 8 13 9 22 3 9 -5 19 -5 26 1 8 7 14 6 19 -1 4 -7 12
-7 25 0 13 7 21 7 25 0 4 -6 12 -7 18 -3 17 10 47 11 53 1 3 -4 14 -4 24 2 13
7 21 7 25 0 4 -7 13 -7 26 0 13 8 19 7 19 0 0 -7 6 -8 18 -1 11 6 24 6 34 0
11 -6 19 -6 23 1 4 7 12 7 25 0 13 -7 21 -7 25 0 4 6 12 7 18 3 16 -10 48 -10
70 0 10 5 17 4 17 -3 0 -8 6 -8 20 0 14 8 20 8 20 0 0 -8 6 -8 20 0 14 8 20 8
20 0 0 -7 6 -8 19 -1 18 10 19 6 19 -62 0 -39 1 -76 2 -82 1 -5 1 -14 0 -20
-1 -5 -1 -39 0 -75 2 -75 2 -70 -2 -133 -2 -26 -1 -47 2 -47 4 0 4 -17 2 -37
-2 -23 0 -33 5 -26 5 8 14 9 23 3 9 -5 19 -5 26 1 8 7 14 6 19 -1 4 -7 12 -7
26 0 13 8 19 7 19 0 0 -8 6 -8 20 0 14 8 20 8 20 0 0 -8 6 -8 20 0 14 8 20 8
20 0 0 -8 6 -8 20 0 14 8 20 8 20 0 0 -8 6 -8 20 0 14 8 20 8 20 0 0 -8 6 -8
20 0 13 7 26 7 38 1 11 -6 24 -6 34 0 10 6 19 6 23 0 4 -7 15 -7 30 -1 14 5
25 6 25 2 0 -4 11 -7 25 -7 14 0 25 3 25 7 0 4 11 3 25 -2 16 -6 26 -6 31 1 4
7 10 6 19 -1 9 -8 15 -8 20 0 9 15 41 -5 48 -30 3 -11 1 -18 -4 -14 -5 3 -5
-6 1 -20 6 -17 6 -26 -1 -26 -6 0 -6 -7 1 -20 8 -14 8 -20 0 -20 -8 0 -8 -6 0
-20 8 -14 8 -20 0 -20 -8 0 -8 -6 0 -20 8 -14 8 -20 0 -20 -8 0 -8 -6 0 -20 8
-14 8 -20 0 -20 -8 0 -8 -6 0 -20 6 -11 7 -20 3 -20 -9 0 -9 -73 1 -88 3 -6 2
-13 -4 -17 -6 -4 -7 -12 0 -24 6 -12 6 -21 -1 -28 -21 -21 57 -49 87 -31 5 4
16 3 22 -1 7 -4 33 -5 58 -1 24 4 47 3 50 -1 2 -5 16 -4 29 1 15 6 27 6 30 0
3 -5 15 -6 28 -1 12 5 34 5 49 0 16 -4 30 -3 34 2 3 5 10 6 16 3 13 -9 202 -9
216 0 11 7 28 -11 18 -21 -3 -3 -1 -14 4 -24 7 -12 7 -20 0 -24 -7 -4 -7 -12
0 -25 7 -13 7 -21 0 -25 -7 -4 -7 -12 0 -25 7 -13 7 -21 0 -25 -7 -4 -7 -12 0
-25 7 -13 7 -21 0 -25 -7 -4 -7 -12 0 -25 6 -12 7 -21 0 -25 -6 -4 -6 -15 0
-30 5 -14 6 -25 2 -25 -6 0 -7 -105 -2 -120 1 -3 2 -13 1 -22 -2 -17 19 -18
318 -18 l320 0 3 38 c2 20 1 63 -2 95 -3 31 -3 57 0 57 3 0 5 25 5 55 0 30 -2
55 -6 55 -3 0 -2 25 1 56 3 30 3 57 0 59 -3 2 -3 29 0 60 3 30 4 57 2 60 -2 2
-4 37 -3 77 2 158 2 199 -4 208 -3 6 -3 10 2 10 4 0 7 57 6 127 -3 163 -3 203
-2 228 0 11 0 55 -1 98 0 43 2 82 5 88 4 5 2 9 -2 9 -5 0 -6 25 -3 56 3 30 2
57 -2 60 -5 3 -6 9 -3 14 4 7 5 72 4 275 0 11 1 84 1 163 0 79 -2 147 -5 153
-4 5 -3 9 2 9 4 0 8 25 8 55 0 30 -2 55 -6 55 -3 0 -2 25 1 56 3 30 3 57 0 59
-3 2 -3 29 0 60 3 30 4 58 1 61 -3 2 -4 28 -2 57 6 116 6 167 -2 167 -5 0 -6
4 -3 9 6 10 8 85 4 199 -2 45 -1 82 2 82 4 0 4 68 0 155 -2 25 -2 137 0 220 1
72 -1 108 -5 115 -3 5 -2 11 3 14 4 2 5 34 2 70 -3 36 -3 66 0 66 4 0 4 59 0
155 -1 17 -1 78 0 138 0 59 -2 112 -5 117 -3 6 -3 10 2 10 4 0 8 25 8 55 0 30
-2 55 -6 55 -3 0 -2 25 1 56 3 30 3 57 0 59 -3 2 -3 29 0 60 3 30 4 57 2 60
-2 2 -4 37 -3 77 2 158 2 199 -4 208 -3 6 -3 10 2 10 4 0 7 57 6 127 -3 163
-3 203 -2 228 0 11 0 55 -1 98 0 43 2 82 5 88 4 5 2 9 -2 9 -5 0 -6 25 -3 55
3 31 4 58 1 60 -2 3 -3 31 -2 62 5 117 6 283 1 283 -3 0 -4 19 -2 42 4 34 2
40 -11 35 -9 -3 -19 -2 -22 3 -3 6 -15 6 -30 0 -14 -5 -25 -6 -25 -2 0 8 -74
6 -97 -2 -7 -3 -13 -2 -13 2 0 4 -13 7 -30 7 -16 0 -30 -3 -30 -7 0 -4 -10 -4
-22 0 -26 9 -60 8 -76 -2 -6 -3 -13 -2 -17 3 -4 7 -15 7 -30 1 -16 -6 -25 -6
-25 0 0 6 -9 6 -25 0 -16 -6 -25 -6 -25 0 0 6 -9 6 -25 0 -15 -6 -25 -6 -25 0
0 5 -12 5 -30 0 -18 -5 -30 -5 -30 0 0 6 -11 5 -26 -1 -15 -5 -29 -7 -32 -4
-3 3 0 5 6 5 8 0 9 7 2 25 -5 14 -6 25 -2 25 4 0 7 25 7 55 0 30 -3 55 -7 55
-4 0 -3 11 2 25 6 15 6 27 0 30 -6 3 -6 15 0 30 5 13 5 27 1 29 -5 3 -5 24 -1
46 4 21 3 37 -1 34 -5 -3 -5 6 1 20 6 17 6 26 -1 26 -6 0 -6 7 1 19 7 14 7 22
0 26 -6 4 -7 11 -4 17 9 14 11 128 2 128 -4 0 -4 10 0 23 9 26 8 69 -2 85 -3
6 -2 13 3 17 7 4 7 15 1 30 -5 14 -6 25 -2 25 4 0 7 27 7 59 0 33 -3 57 -7 54
-5 -2 -4 7 2 21 6 16 6 27 0 31 -6 4 -7 13 -1 23 6 11 6 24 0 34 -6 10 -6 19
0 23 7 3 7 15 1 30 -6 15 -6 27 0 30 6 3 5 16 0 31 -6 14 -7 23 -2 21 4 -3 7
8 7 24 0 16 -3 29 -7 29 -4 0 -3 11 2 25 5 13 5 27 1 29 -5 3 -5 23 -1 45 4
22 3 45 -1 52 -4 8 -3 19 3 26 7 9 7 13 -1 13 -7 0 -8 8 -1 25 6 16 6 25 0 25
-6 0 -6 9 0 25 6 15 6 25 0 25 -5 0 -5 12 0 30 5 19 5 28 -1 25 -5 -4 -5 4 1
19 6 16 6 27 0 31 -6 4 -7 13 -1 23 6 11 6 24 0 34 -6 10 -6 19 0 23 7 3 7 15
1 30 -6 15 -6 27 0 30 6 3 5 16 0 31 -6 14 -7 23 -2 21 4 -3 7 8 7 24 0 16 -3
29 -7 29 -4 0 -3 11 2 25 5 13 5 27 1 30 -5 3 -6 20 -1 38 4 18 3 43 -1 55 -5
13 -4 22 1 22 6 0 6 9 0 25 -5 14 -6 25 -2 25 9 0 7 64 -2 79 -4 5 -2 12 3 16
7 3 7 15 1 30 -6 15 -6 27 0 30 6 3 5 16 0 31 -6 14 -7 23 -2 21 4 -3 7 8 7
24 0 16 -3 29 -7 29 -4 0 -3 11 2 25 6 16 6 25 0 25 -6 0 -5 11 1 27 6 15 7
25 4 21 -4 -4 -18 -3 -31 2 -14 6 -26 6 -29 0 -4 -6 -13 -7 -24 -1 -10 6 -23
6 -31 1 -8 -5 -18 -6 -23 -3 -12 8 -216 7 -224 0 -3 -4 -14 -2 -24 3 -11 7
-20 7 -24 0 -3 -5 -13 -6 -22 -3 -21 8 -77 8 -89 0 -6 -3 -16 -2 -24 3 -8 5
-21 5 -31 -1 -11 -6 -20 -5 -24 1 -4 7 -12 7 -25 0 -13 -7 -19 -6 -24 5 -3 8
-1 15 5 15 6 0 6 7 -1 20 -6 11 -7 20 -3 20 4 0 8 11 8 25 0 14 -2 25 -5 25
-7 0 -4 66 5 79 3 6 1 11 -5 11 -8 0 -8 6 0 20 8 14 8 20 0 20 -8 0 -8 6 0 20
8 14 8 20 0 20 -8 0 -8 6 0 20 8 14 8 20 0 20 -7 0 -8 6 -1 18 7 13 7 22 0 29
-8 8 -7 13 0 17 8 5 8 13 1 27 -7 12 -7 19 -1 19 7 0 7 9 1 25 -6 15 -6 27 0
30 6 3 5 16 0 31 -6 14 -7 23 -2 21 4 -3 7 8 7 24 0 16 -4 29 -8 29 -4 0 -3 9
3 19 7 13 7 22 0 26 -7 4 -7 13 0 24 6 12 5 22 -1 28 -8 8 -8 13 0 17 7 5 7
15 1 31 -6 16 -6 25 1 25 6 0 6 6 0 19 -6 10 -8 21 -5 24 8 8 10 86 2 81 -4
-3 -4 6 2 20 6 16 6 26 0 26 -6 0 -6 9 0 25 6 16 6 26 -1 31 -7 4 -6 10 1 19
8 9 8 15 0 20 -7 4 -7 12 0 26 6 10 7 19 3 19 -4 0 -8 14 -8 30 0 17 4 30 8
30 4 0 3 9 -3 20 -8 14 -8 20 0 20 8 0 8 6 0 20 -8 14 -8 20 0 20 8 0 8 6 0
20 -8 14 -8 20 0 20 7 0 8 6 0 19 -7 14 -7 22 0 26 8 5 8 11 0 20 -8 9 -8 15
0 20 7 4 7 12 0 25 -7 13 -7 21 0 25 7 4 7 13 0 26 -6 10 -7 19 -3 19 10 0 10
41 0 57 -4 7 -3 14 2 18 7 4 7 15 1 30 -6 16 -6 25 0 25 6 0 6 10 0 26 -6 14
-7 23 -2 21 4 -3 7 8 7 23 0 15 -3 26 -7 23 -5 -2 -4 7 2 21 6 16 6 27 0 31
-7 4 -6 13 0 26 7 12 7 19 1 19 -7 0 -7 9 -1 26 7 16 7 23 0 19 -7 -4 -7 3 0
19 6 16 6 26 0 26 -6 0 -6 9 0 25 6 15 6 25 0 25 -5 0 -5 12 0 30 5 19 5 30
-1 30 -6 0 -5 8 1 20 8 14 8 20 0 20 -8 0 -8 6 0 20 6 11 7 20 3 20 -10 0 -8
63 2 79 3 6 1 11 -5 11 -8 0 -8 6 0 20 8 14 8 20 0 20 -8 0 -8 6 0 20 8 14 8
20 0 20 -8 0 -8 6 0 20 8 14 8 20 0 20 -7 0 -8 6 -1 18 7 13 7 22 0 29 -8 8
-8 13 0 17 7 5 7 15 1 32 -7 17 -7 23 0 19 7 -4 7 2 0 19 -5 15 -6 28 0 31 6
3 5 16 0 31 -6 14 -7 23 -2 21 4 -3 7 8 7 23 0 15 -3 26 -7 23 -5 -2 -4 7 2
21 6 16 6 26 0 26 -6 0 -6 9 0 25 6 16 6 26 -1 31 -7 4 -6 10 1 19 8 9 8 15 0
20 -7 4 -7 12 0 26 7 12 7 19 1 19 -6 0 -8 6 -6 13 9 22 11 106 3 101 -4 -3
-4 6 2 20 6 16 6 26 0 26 -6 0 -6 9 0 25 6 16 6 26 -1 31 -7 4 -6 10 1 19 8 9
8 15 0 20 -7 4 -7 12 0 26 6 10 7 19 3 19 -4 0 -8 14 -8 30 0 17 4 30 8 30 4
0 3 9 -3 20 -8 14 -8 20 0 20 8 0 8 6 0 20 -8 14 -8 20 0 20 8 0 8 6 0 20 -8
14 -8 20 0 20 7 0 8 6 0 19 -7 13 -7 22 0 26 7 4 7 13 0 26 -7 12 -7 19 -1 19
7 0 7 9 1 25 -6 16 -6 25 0 25 6 0 6 9 0 25 -6 16 -6 26 1 31 7 4 7 10 0 18
-7 9 -7 16 1 24 9 9 9 12 0 12 -8 0 -9 7 -2 25 6 17 6 25 -1 25 -6 0 -7 5 -4
11 10 15 12 78 3 73 -5 -3 -4 6 2 20 6 16 6 26 0 26 -6 0 -6 9 0 25 6 16 6 25
-1 25 -6 0 -6 7 1 19 7 13 7 22 0 26 -7 4 -7 12 0 25 7 13 7 21 0 25 -7 5 -8
11 -1 19 6 7 6 17 1 26 -5 8 -6 19 -3 24 10 15 10 56 0 56 -4 0 -3 9 3 19 7
13 7 22 0 26 -7 4 -7 12 0 25 6 12 7 21 0 25 -6 3 -6 15 0 30 6 16 6 27 -1 31
-7 4 -6 10 1 19 8 9 8 15 0 20 -7 4 -7 12 0 25 7 13 7 21 0 25 -6 4 -7 11 -4
17 10 16 11 67 2 61 -5 -2 -4 7 2 21 6 16 6 26 0 26 -6 0 -6 9 0 25 6 16 6 25
-1 25 -6 0 -6 7 1 19 7 13 7 22 0 26 -7 4 -7 12 0 25 7 13 7 21 0 25 -7 5 -8
11 -1 19 6 7 6 17 1 26 -5 8 -6 19 -3 24 10 15 10 56 0 56 -4 0 -3 9 3 19 7
13 7 22 0 26 -7 4 -7 12 0 25 6 12 7 21 0 25 -6 3 -6 15 0 30 6 16 6 27 -1 31
-7 4 -6 10 1 19 8 9 8 15 0 20 -7 4 -7 12 0 25 7 13 7 21 0 25 -6 4 -7 11 -4
17 10 16 11 67 2 61 -5 -2 -4 7 2 21 6 16 6 26 0 26 -6 0 -6 9 0 25 6 16 6 25
-1 25 -6 0 -6 7 1 19 7 13 7 22 0 26 -7 4 -7 12 0 25 7 13 7 21 0 25 -7 5 -8
11 -1 19 6 7 6 17 1 26 -5 8 -6 19 -3 24 9 15 10 56 1 56 -4 0 -3 11 2 25 6
16 6 25 0 25 -6 0 -6 9 -1 23 5 13 5 30 1 37 -5 9 -4 20 2 27 6 8 6 13 1 13
-5 0 -10 7 -10 15 0 8 4 15 8 15 5 0 4 11 -1 25 -6 16 -6 25 1 25 6 0 6 7 -1
20 -6 11 -7 20 -3 20 4 0 8 13 8 29 0 16 -3 27 -7 24 -5 -2 -4 7 2 21 6 16 6
26 0 26 -6 0 -6 9 0 25 6 16 6 25 -1 25 -6 0 -6 7 1 19 7 13 7 22 0 26 -7 4
-7 12 0 25 7 13 7 21 0 25 -7 5 -8 11 -1 19 6 7 6 17 1 26 -5 8 -6 19 -3 24
10 15 10 56 0 56 -4 0 -3 9 3 19 7 13 7 22 0 26 -7 4 -7 12 0 25 6 11 6 21 1
24 -5 3 -5 21 -1 40 4 20 3 39 -2 44 -6 6 -6 12 1 16 7 5 7 15 1 31 -6 16 -6
25 0 25 6 0 6 10 0 26 -6 14 -7 23 -2 21 4 -3 7 8 7 23 0 15 -3 26 -7 23 -5
-2 -4 7 2 21 6 16 6 27 0 31 -7 4 -6 13 0 26 7 12 7 19 1 19 -7 0 -7 9 -1 26
7 16 7 23 0 19 -7 -4 -7 3 0 19 6 16 6 26 0 26 -6 0 -6 9 0 25 6 15 6 25 0 25
-5 0 -5 12 0 30 5 19 5 28 -1 25 -5 -4 -5 4 1 19 6 17 6 26 -1 26 -6 0 -6 7 1
20 6 11 7 20 3 20 -10 0 -8 63 2 79 3 6 1 11 -5 11 -8 0 -8 6 0 20 8 14 8 20
0 20 -8 0 -8 6 0 20 8 14 8 20 0 20 -8 0 -8 6 0 20 8 14 8 20 0 20 -8 0 -8 6
0 20 8 14 8 20 0 20 -8 0 -8 6 0 20 8 14 8 20 0 20 -8 0 -8 6 0 20 8 14 8 20
0 20 -6 0 -8 4 -5 10 11 19 14 50 4 55 -5 4 -6 11 -3 17 10 16 11 68 1 68 -4
0 -3 9 3 19 7 13 7 22 0 26 -7 4 -7 13 0 24 6 12 5 22 -1 28 -8 8 -8 13 0 17
7 5 7 15 1 31 -6 16 -6 25 1 25 6 0 6 7 -1 20 -8 14 -8 26 0 40 7 13 7 20 1
20 -7 0 -7 9 -1 25 6 16 6 25 -1 25 -6 0 -6 6 0 18 6 11 6 24 0 34 -6 11 -6
19 1 23 7 4 7 13 0 26 -6 10 -7 19 -3 19 4 0 8 14 8 30 0 17 -2 30 -5 30 -3 0
-5 14 -5 30 0 17 4 30 8 30 4 0 3 9 -3 20 -8 14 -8 20 0 20 8 0 8 6 0 20 -8
14 -8 20 0 20 8 0 8 6 0 20 -8 14 -8 20 0 20 7 0 8 6 0 19 -7 14 -7 22 0 26 8
5 8 11 1 19 -7 9 -7 16 0 23 8 8 8 13 0 17 -8 5 -8 13 -1 27 8 13 7 19 0 19
-7 0 -8 7 -3 18 10 21 10 53 0 69 -4 6 -3 14 2 18 7 4 7 15 1 30 -6 16 -6 25
0 25 6 0 6 10 0 26 -6 14 -7 23 -2 21 4 -3 7 8 7 23 0 15 -3 26 -7 23 -5 -2
-4 7 2 21 6 16 6 27 0 31 -7 4 -6 13 0 26 8 13 7 19 0 19 -6 0 -8 4 -5 10 9
15 12 80 3 80 -4 0 -3 11 2 25 6 15 6 25 0 25 -5 0 -5 12 0 30 5 19 5 28 -1
25 -5 -4 -5 4 1 19 6 17 6 26 -1 26 -6 0 -6 7 1 20 6 11 7 20 2 20 -5 0 -6 20
-2 45 4 24 3 48 -3 54 -5 5 -5 11 2 15 7 5 7 15 1 31 -6 16 -6 25 0 25 6 0 6
10 0 26 -6 14 -7 23 -2 21 4 -3 7 8 7 23 0 15 -3 26 -7 23 -5 -2 -4 7 2 21 6
16 6 27 0 31 -7 4 -6 13 0 26 7 12 7 19 1 19 -7 0 -7 9 -1 26 7 16 7 23 0 19
-7 -4 -7 3 0 19 6 16 6 26 0 26 -6 0 -6 9 0 25 6 15 6 25 0 25 -5 0 -5 12 0
30 5 19 5 30 -1 30 -6 0 -5 8 1 20 8 14 8 20 0 20 -8 0 -8 6 0 20 6 11 7 20 3
20 -10 0 -8 63 2 79 3 6 1 11 -5 11 -8 0 -8 6 0 20 8 14 8 20 0 20 -8 0 -8 6
0 20 8 14 8 20 0 20 -8 0 -8 6 0 20 8 14 8 20 0 20 -8 0 -8 6 0 20 8 14 8 20
0 20 -8 0 -8 6 0 20 8 14 8 20 0 20 -8 0 -8 6 0 20 8 14 8 20 0 20 -6 0 -8 4
-5 10 11 19 14 50 4 55 -5 4 -6 11 -3 17 10 16 11 68 1 68 -4 0 -3 9 3 19 7
13 7 22 0 26 -7 4 -7 13 0 24 6 12 5 22 -1 28 -8 8 -8 13 0 17 7 5 7 15 1 31
-6 16 -6 25 1 25 6 0 6 7 -1 20 -8 14 -8 20 0 20 7 0 8 6 0 19 -7 13 -7 22 0
26 7 4 7 13 0 26 -7 12 -7 19 -1 19 7 0 7 9 1 25 -5 14 -6 25 -2 25 4 0 7 11
7 25 0 14 -3 25 -7 25 -4 0 -4 10 1 23 5 12 5 32 0 45 -5 13 -5 22 2 22 6 0 6
7 -1 20 -8 14 -8 26 0 40 8 14 8 20 0 20 -8 0 -8 6 0 20 8 14 8 20 0 20 -8 0
-8 6 0 20 8 14 8 20 0 20 -8 0 -8 6 0 20 8 14 8 20 0 20 -8 0 -8 6 0 20 8 14
8 20 0 20 -8 0 -8 6 0 20 8 14 8 20 0 20 -8 0 -8 6 0 20 8 14 8 20 0 20 -7 0
-8 7 -3 18 10 21 10 53 0 69 -4 6 -3 14 2 18 7 4 7 15 1 30 -6 16 -6 25 0 25
6 0 6 10 0 26 -6 14 -7 23 -2 21 4 -3 7 8 7 23 0 15 -3 26 -7 23 -5 -2 -4 7 2
21 6 16 6 27 0 31 -7 4 -6 13 0 26 7 12 7 19 1 19 -7 0 -7 9 -1 26 7 16 7 23
0 19 -7 -4 -7 3 0 19 6 16 6 26 0 26 -6 0 -6 9 0 25 6 15 6 25 0 25 -5 0 -5
12 0 30 5 19 5 30 -1 30 -6 0 -5 8 1 20 6 11 7 20 2 20 -4 0 -8 9 -8 20 0 11
3 20 6 20 7 0 4 85 -4 98 -3 6 -2 13 3 17 7 4 7 15 1 30 -6 16 -6 25 0 25 6 0
6 9 0 25 -6 15 -6 26 0 30 7 4 6 13 0 26 -6 10 -7 19 -3 19 10 0 7 75 -2 90
-3 6 -1 10 5 10 8 0 8 6 0 20 -7 13 -7 20 -1 20 7 0 7 9 1 25 -6 16 -6 25 0
25 6 0 6 9 0 25 -6 16 -6 25 0 25 5 0 6 7 3 17 -4 11 -3 14 6 9 7 -5 43 -7 79
-6 37 1 72 1 77 1 187 -4 460 0 467 7 12 12 16 272 5 272 -4 0 -4 8 0 18 10
21 10 53 0 69 -4 6 -3 14 2 18 6 3 7 15 2 28 -16 44 15 82 55 67 14 -6 26 -6
29 0 3 5 11 7 18 4 20 -7 127 -10 127 -3 0 4 18 3 39 -1 22 -4 45 -4 52 1 7 4
22 4 33 -1 11 -4 33 -4 47 0 15 4 32 4 39 0 7 -5 23 -5 34 0 12 4 30 4 41 0
11 -4 32 -4 47 1 15 4 30 4 33 -1 8 -14 44 1 44 18 2 101 0 155 -4 163 -4 5
-3 9 2 9 7 0 8 39 3 140 -3 62 3 136 12 147 6 8 17 9 34 3 16 -6 24 -6 24 1 0
6 7 6 19 -1 13 -7 22 -7 26 0 4 7 12 7 25 0 11 -6 28 -7 42 -1 13 5 33 5 45 0
13 -5 25 -4 28 1 4 7 13 6 25 0 10 -6 21 -7 24 -2 5 9 47 9 62 0 5 -3 18 -2
29 2 11 4 30 4 43 -1 14 -5 22 -5 22 2 0 6 5 7 11 4 14 -9 113 -10 128 -1 6 4
11 2 11 -4 0 -8 6 -8 20 0 15 8 18 15 11 34 -5 12 -6 29 -1 36 5 7 4 23 0 36
-5 12 -6 25 -2 28 7 8 5 123 -3 136 -4 6 -2 10 4 10 6 0 6 11 1 30 -5 17 -5
32 0 35 5 3 5 16 0 30 -6 15 -6 27 0 30 5 3 6 15 1 27 -4 12 -5 38 -1 59 4 21
4 43 -1 50 -4 7 -4 20 1 29 5 9 5 22 0 30 -4 7 -4 24 0 36 6 14 5 26 0 29 -6
3 -6 15 0 30 5 14 5 27 0 30 -5 3 -5 18 0 35 5 19 5 30 -1 30 -6 0 -7 5 -4 10
9 14 9 82 0 110 -5 15 -4 20 3 16 7 -4 8 3 2 24 -5 17 -5 32 0 35 5 3 5 16 0
30 -6 15 -6 27 0 30 5 3 6 15 1 27 -4 12 -5 38 -1 59 4 21 4 43 -1 50 -4 7 -4
20 1 29 5 9 5 22 0 30 -5 8 -5 21 0 30 5 9 5 22 0 30 -5 8 -5 21 0 31 5 9 7
19 4 22 -3 3 -7 24 -7 47 l-2 41 43 -1 c23 0 63 -1 90 -1 26 -1 54 -1 62 0 8
1 33 1 55 0 22 -1 47 -1 55 0 8 0 38 0 65 0 28 -1 57 0 65 0 8 1 33 1 55 0 22
-1 47 -1 55 0 8 0 35 1 60 1 43 0 45 1 44 28 0 16 -4 34 -8 40 -3 6 -2 13 4
17 7 4 7 12 0 24 -5 10 -6 21 -3 25 9 9 10 56 1 56 -4 0 -3 11 2 25 6 16 6 25
-1 25 -6 0 -6 7 1 19 6 12 6 22 1 25 -5 3 -5 21 -1 41 5 20 4 38 -2 41 -5 4
-5 11 1 18 6 7 8 16 5 19 -6 5 -8 53 -5 80 1 4 9 3 19 -2 11 -6 24 -6 34 0 11
6 19 6 23 -1 4 -6 10 -8 14 -6 9 6 47 7 194 6 59 0 112 2 117 5 6 3 10 3 10
-2 0 -4 19 -7 42 -6 87 5 103 5 113 3 35 -8 73 2 78 20 3 11 1 22 -4 25 -4 3
-4 16 1 29 4 12 5 28 0 35 -4 7 -4 28 0 47 4 19 4 36 -1 39 -4 3 -4 17 1 30 6
15 6 27 0 30 -5 3 -7 12 -3 20 9 24 9 145 0 145 -5 0 -5 5 -1 11 8 13 9 417 1
425 -3 3 -2 17 3 30 6 14 6 26 0 29 -6 3 -6 15 0 30 6 15 6 27 0 30 -6 4 -7
13 -1 24 6 10 6 23 1 31 -5 8 -5 21 0 30 5 9 5 22 0 30 -4 7 -4 24 0 36 6 14
5 26 0 29 -6 3 -6 15 0 30 6 15 6 27 0 30 -6 3 -6 15 0 30 6 15 6 27 0 30 -6
4 -7 13 -1 24 6 10 6 23 1 31 -5 8 -5 21 0 30 5 9 5 22 1 29 -5 7 -5 30 -1 52
4 21 4 39 -1 39 -5 0 -4 11 1 25 6 15 6 27 0 30 -5 3 -7 12 -3 20 8 22 9 145
1 145 -4 0 -5 7 -2 15 10 24 10 155 1 155 -5 0 -5 5 -1 11 8 14 10 247 1 255
-3 3 -2 17 3 30 6 14 6 26 0 29 -6 4 -7 13 -1 24 6 10 6 23 1 31 -5 8 -5 21 0
30 5 9 4 23 -1 32 -6 10 -6 19 0 23 7 4 7 15 1 30 -6 17 -6 25 1 25 6 0 7 5 3
12 -4 6 -3 8 3 5 9 -6 50 -8 113 -6 8 0 41 -1 73 -2 31 -1 59 0 61 2 2 2 41 2
86 -1 45 -3 84 -2 86 1 2 4 21 3 41 -1 21 -3 50 -3 64 1 15 3 32 3 38 0 6 -4
25 -6 41 -3 l30 4 0 1440 c0 791 -4 1437 -8 1434 -4 -2 -14 -1 -22 4 -8 5 -21
5 -30 0 -9 -5 -22 -5 -30 0 -8 5 -21 5 -31 -1 -11 -6 -20 -5 -24 1 -4 6 -15 6
-30 0 -14 -5 -25 -6 -25 -2 0 8 -63 8 -76 -1 -6 -3 -16 -2 -23 2 -7 5 -28 5
-47 1 -19 -4 -34 -4 -34 0 0 5 -13 5 -30 0 -17 -5 -30 -5 -30 0 0 5 -13 5 -30
0 -16 -5 -30 -6 -30 -2 0 4 -32 6 -71 5 -65 -1 -71 0 -66 18 3 10 1 19 -4 19
-5 0 -4 11 1 25 6 15 6 27 0 30 -5 3 -7 12 -3 20 8 23 9 145 1 145 -4 0 -3 11
2 25 6 15 6 27 0 30 -6 3 -6 15 0 30 6 15 6 27 0 30 -6 3 -6 15 0 30 6 15 6
27 0 30 -5 3 -6 15 -1 28 5 12 5 32 0 45 -5 12 -5 22 -1 22 8 0 6 144 -2 166
-3 8 -1 14 4 14 5 0 5 13 0 30 -5 17 -5 30 0 30 5 0 5 13 0 30 -5 17 -6 30 -2
30 4 0 7 27 7 59 0 33 -3 57 -7 54 -5 -2 -4 7 2 21 5 15 6 28 0 31 -6 3 -6 15
0 30 6 15 6 27 0 30 -6 3 -6 15 0 30 6 15 6 27 0 30 -6 4 -7 13 -1 24 6 10 6
23 1 31 -5 8 -5 21 0 30 5 9 5 22 1 29 -5 7 -5 30 -1 52 4 21 4 39 -1 39 -5 0
-4 11 1 25 6 15 6 27 0 30 -5 3 -7 12 -3 20 9 24 9 145 0 145 -5 0 -5 5 -1 11
8 13 9 417 1 425 -3 3 -2 17 3 30 6 14 6 26 0 29 -6 3 -6 15 0 30 6 15 6 27 0
30 -6 4 -7 13 -1 24 6 10 6 23 1 31 -5 8 -5 21 0 30 5 9 5 22 0 30 -4 7 -6 18
-4 24 8 21 10 106 2 106 -4 0 -3 11 2 24 7 19 5 26 -6 30 -9 3 -20 4 -25 0 -5
-3 -9 -2 -9 3 0 4 -17 7 -37 6 -21 -1 -38 -2 -38 -3 0 -1 -19 -2 -43 -3 -23
-1 -42 1 -42 5 0 4 -13 3 -30 -2 -16 -5 -30 -5 -30 -1 0 4 -27 4 -60 1 -33 -3
-60 -3 -60 1 0 4 -13 4 -30 -1 -17 -5 -30 -5 -30 0 0 5 -13 5 -30 0 -17 -5
-30 -5 -30 0 0 5 -13 5 -29 0 -16 -4 -32 -6 -35 -2 -3 3 -22 5 -41 4 -20 -1
-33 3 -30 8 3 5 1 11 -5 15 -7 4 -7 12 0 25 7 13 7 21 0 25 -7 5 -8 11 -1 19
6 7 6 17 1 26 -5 9 -5 19 2 27 7 9 7 17 0 26 -7 8 -7 18 -2 27 5 9 5 19 -1 26
-7 8 -6 14 1 19 7 4 7 12 0 24 -5 10 -6 21 -3 25 9 9 10 56 1 56 -4 0 -3 11 2
25 6 16 6 25 0 25 -6 0 -6 9 -1 23 5 13 5 30 1 37 -5 9 -4 20 2 27 6 8 6 13 1
13 -5 0 -10 7 -10 15 0 8 4 15 8 15 5 0 4 11 -1 25 -6 16 -6 25 1 25 6 0 6 7
-1 20 -6 11 -7 20 -3 20 4 0 8 13 8 29 0 16 -3 27 -7 24 -5 -2 -4 7 2 21 6 16
6 26 0 26 -6 0 -6 9 0 25 6 16 6 25 -1 25 -6 0 -6 7 1 19 7 13 7 22 0 26 -7 4
-7 12 0 25 7 13 7 21 0 25 -7 5 -8 11 -1 19 6 7 6 17 1 26 -5 8 -6 19 -3 24 9
15 10 56 1 56 -4 0 -3 11 2 25 6 16 6 25 -1 25 -6 0 -6 7 1 19 6 13 7 22 0 26
-6 3 -6 15 0 30 6 16 6 27 -1 31 -7 4 -6 10 1 19 8 9 8 15 0 20 -7 4 -7 12 0
25 7 13 7 21 0 25 -6 4 -7 11 -4 17 10 16 11 67 2 61 -5 -2 -4 7 2 21 6 16 6
26 0 26 -6 0 -6 9 0 25 6 16 6 25 -1 25 -6 0 -6 7 1 19 7 13 7 22 0 26 -7 4
-7 12 0 25 7 13 7 21 0 25 -7 5 -8 11 -1 19 6 7 6 17 1 26 -5 8 -6 19 -3 24 9
15 10 56 1 56 -4 0 -3 11 2 25 6 16 6 25 -1 25 -6 0 -6 7 1 19 6 13 7 22 0 26
-6 3 -6 15 0 30 6 16 6 27 -1 31 -7 4 -6 10 1 19 8 9 8 15 0 20 -7 4 -7 12 0
25 7 13 7 21 0 25 -6 4 -7 11 -4 17 10 16 11 67 2 61 -5 -2 -4 7 2 21 6 16 6
26 0 26 -6 0 -6 9 0 25 6 16 6 25 -1 25 -6 0 -6 7 1 19 7 13 7 22 0 26 -7 4
-7 12 0 25 7 13 7 21 0 25 -7 5 -8 11 -1 19 6 7 6 17 1 26 -5 8 -6 19 -3 24 9
15 10 56 1 56 -4 0 -3 11 2 25 6 16 6 25 -1 25 -6 0 -6 7 1 19 6 13 7 22 0 26
-6 3 -6 15 0 30 6 16 6 27 -1 31 -7 4 -6 10 1 19 8 9 8 15 0 20 -7 4 -7 12 0
25 7 13 7 21 0 25 -6 4 -7 11 -4 17 10 16 11 67 2 61 -5 -2 -4 7 2 21 6 16 6
26 0 26 -6 0 -6 9 0 25 6 16 6 25 -1 25 -6 0 -6 7 1 19 7 13 7 22 0 26 -7 4
-7 12 0 25 7 13 7 21 0 25 -7 5 -8 11 -1 19 6 7 6 17 1 26 -5 8 -6 19 -3 24 9
15 10 56 1 56 -4 0 -3 11 2 25 6 16 6 25 -1 25 -6 0 -6 7 1 19 6 13 7 22 0 26
-6 3 -6 15 0 30 6 16 6 27 -1 31 -7 4 -6 10 1 19 8 9 8 15 0 20 -7 4 -7 12 0
25 7 13 7 21 0 25 -6 4 -7 11 -4 17 10 16 11 67 2 61 -5 -2 -4 7 2 21 6 16 6
26 0 26 -6 0 -6 9 0 25 13 35 -20 71 -50 55 -13 -7 -20 -7 -20 -1 0 7 -9 7
-26 1 -14 -6 -23 -7 -21 -2 3 4 -8 7 -23 7 -15 0 -26 -3 -23 -7 2 -5 -7 -4
-21 2 -16 6 -27 6 -31 0 -4 -6 -13 -7 -23 -1 -11 6 -24 6 -35 0 -11 -7 -17 -6
-17 1 0 7 -6 8 -19 0 -13 -7 -22 -7 -26 0 -4 7 -13 7 -26 0 -12 -7 -19 -7 -19
-1 0 7 -9 7 -25 1 -14 -5 -25 -6 -25 -2 0 4 -11 7 -25 7 -14 0 -25 -3 -25 -7
0 -4 -11 -3 -25 2 -16 6 -25 6 -25 0 0 -6 -9 -6 -25 0 -13 5 -27 6 -29 1 -8
-12 -57 0 -53 13 2 6 0 19 -4 28 -6 10 -5 19 1 23 5 3 6 15 0 29 -4 12 -4 29
0 36 5 8 4 22 -1 31 -6 11 -5 20 1 24 6 3 6 15 0 30 -6 15 -6 27 0 30 5 3 6
15 1 27 -4 12 -5 38 -1 59 4 21 4 43 -1 50 -4 7 -4 20 1 29 5 9 5 22 0 30 -5
8 -7 17 -4 21 2 4 -1 11 -7 15 -13 7 -313 9 -326 1 -4 -2 -17 -1 -28 3 -11 4
-32 4 -47 -1 -16 -4 -28 -5 -28 -1 0 4 -13 7 -30 7 -16 0 -30 -3 -30 -6 0 -4
-15 -3 -34 1 -19 4 -40 4 -47 -1 -7 -4 -21 -3 -30 2 -27 14 -30 -1 -29 -116 0
-11 0 -46 0 -79 0 -32 3 -62 6 -67 3 -5 2 -9 -3 -9 -4 0 -8 -25 -8 -55 0 -30
4 -55 8 -55 5 0 5 -5 1 -12 -4 -6 -6 -28 -6 -49 2 -41 -14 -52 -55 -37 -14 4
-23 4 -23 -3 0 -6 -6 -6 -18 0 -10 5 -24 6 -31 1 -8 -4 -27 -4 -42 0 -17 5
-29 5 -29 0 0 -6 -10 -6 -24 0 -15 5 -27 5 -34 -2 -6 -6 -12 -6 -16 1 -4 6
-15 7 -30 1 -12 -4 -29 -4 -36 0 -8 5 -22 4 -31 -1 -11 -6 -20 -5 -24 1 -4 6
-15 6 -30 0 -14 -5 -25 -6 -25 -2 0 9 -65 6 -80 -3 -6 -3 -10 -2 -10 2 0 8
-38 9 -65 2 -5 -1 -18 1 -27 5 -13 6 -15 13 -8 32 6 15 6 24 0 24 -6 0 -6 9 0
25 6 15 6 26 0 30 -6 4 -7 14 -2 23 9 21 9 53 -1 69 -4 6 -3 14 2 18 7 3 7 15
1 29 -5 13 -7 26 -5 28 10 9 12 54 4 76 -5 12 -5 22 1 22 5 0 5 12 0 30 -5 19
-5 30 1 30 6 0 6 7 0 19 -11 20 -61 32 -83 20 -8 -4 -20 -4 -26 0 -7 4 -33 5
-58 1 -24 -4 -47 -3 -50 1 -2 5 -16 4 -29 -1 -15 -6 -27 -6 -30 0 -3 5 -15 6
-29 0 -12 -4 -29 -5 -36 0 -7 5 -23 4 -36 0 -12 -5 -25 -6 -28 -3 -7 7 -122 7
-133 0 -5 -3 -15 -2 -22 3 -8 4 -26 4 -41 0 -23 -7 -29 -4 -38 16 -8 15 -8 25
-1 30 7 4 6 10 -1 19 -8 9 -8 15 0 20 7 4 7 12 0 24 -5 10 -6 21 -3 25 9 9 9
65 1 59 -5 -2 -4 7 2 21 6 16 6 26 0 26 -6 0 -6 9 0 25 6 15 6 25 0 25 -5 0
-5 12 0 30 5 19 5 30 -1 30 -6 0 -5 8 1 20 8 14 8 20 0 20 -8 0 -8 6 0 20 6
11 7 20 2 20 -5 0 -7 11 -4 25 l4 25 -316 0 c-245 0 -317 -3 -320 -12z m-1911
-3348 c3 -6 -1 -7 -9 -4 -18 7 -21 14 -7 14 6 0 13 -4 16 -10z m2552 -2405 c0
-8 -4 -12 -9 -9 -5 3 -6 10 -3 15 9 13 12 11 12 -6z m0 -7680 c0 -8 -4 -12 -9
-9 -5 3 -6 10 -3 15 9 13 12 11 12 -6z m-2552 -16795 c3 -6 -1 -7 -9 -4 -18 7
-21 14 -7 14 6 0 13 -4 16 -10z"/>
</g>
</svg>
