<svg width="60" height="216" fill="none" xmlns="http://www.w3.org/2000/svg"><path fill="#B4131F" d="M8 12h4v6H8z"/><path fill="#D43A48" d="M12 33h4v6h-4zM8 18h4v6H8zM8 42h4v6H8zM12 45h4v6h-4zM4 45h4v6H4zM8 36h4v6H8zM8 30h4v6H8zM12 69h4v6h-4zM12 75h4v6h-4zM12 21h4v6h-4zM12 27h4v6h-4zM12 9h4v6h-4zM12 15h4v6h-4zM16 30h4v6h-4zM16 18h4v6h-4zM16 24h4v6h-4z"/><path fill="#B4131F" d="M16 6h4v6h-4z"/><path fill="#D43A48" d="M16 12h4v6h-4zM16 60h4v6h-4zM16 48h4v6h-4zM16 54h4v6h-4zM16 36h4v6h-4zM16 42h4v6h-4z"/><path fill="#DAB3A6" d="M8 54h4v6H8zM8 48h4v6H8zM16 72h4v6h-4zM16 66h4v6h-4zM12 57h4v6h-4zM12 39h4v6h-4zM28 9h4v6h-4zM32 24h4v6h-4zM32 66h4v6h-4zM32 18h4v6h-4zM12 63h4v6h-4zM12 51h4v6h-4z"/><path fill="#D43A48" d="M4 51h4v6H4zM4 63h4v6H4zM4 57h4v6H4z"/><path fill="#B4131F" d="M8 24h4v6H8z"/><path fill="#D43A48" d="M24 87h-4v-6h4z"/><path fill="#6CB950" d="M32 147h-4v-6h4z"/><path fill="#D43A48" d="M24 75h-4v-6h4zM24 69h-4v-6h4z"/><path fill="#B4131F" d="M24 81h-4v-6h4z"/><path fill="#D43A48" d="M28 60h-4v-6h4z"/><path fill="#B4131F" d="M28 54h-4v-6h4zM28 48h-4v-6h4zM28 66h-4v-6h4z"/><path fill="#D43A48" d="M28 84h-4v-6h4zM28 78h-4v-6h4z"/><path fill="#B4131F" d="M28 72h-4v-6h4zM28 90h-4v-6h4z"/><path fill="#6CB950" d="M36 138h-4v-6h4zM32 153h-4v-6h4z"/><path fill="#074710" d="M32 195h-4v-6h4zM24 189h-4v-6h4z"/><path fill="#6CB950" d="M32 135h-4v-6h4z"/><path fill="#D43A48" d="M36 84h-4v-6h4z"/><path fill="#6CB950" d="M36 162h-4v-6h4zM32 117h-4v-6h4z"/><path fill="#D43A48" d="M36 78h-4v-6h4z"/><path fill="#CDDB91" d="M36 156h-4v-6h4z"/><path fill="#D43A48" d="M36 60h-4v-6h4zM36 48h-4v-6h4zM36 66h-4v-6h4zM36 54h-4v-6h4zM36 42h-4v-6h4z"/><path fill="#DAB3A6" d="M48 54h4v6h-4zM36 51h4v6h-4z"/><path fill="#B4131F" d="M48 57h-4v-6h4z"/><path fill="#D43A48" d="M40 45h-4v-6h4zM40 39h-4v-6h4zM40 51h-4v-6h4z"/><path fill="#DAB3A6" d="M36 63h4v6h-4zM48 42h4v6h-4z"/><path fill="#6CB950" d="M36 144h-4v-6h4z"/><path fill="#D43A48" d="M40 63h-4v-6h4zM24 57h-4v-6h4zM40 33h-4v-6h4z"/><path fill="#B4131F" d="M36 90h-4v-6h4z"/><path fill="#6CB950" d="M36 120h-4v-6h4zM36 174h-4v-6h4z"/><path fill="#074710" d="M40 201h-4v-6h4zM24 159h-4v-6h4zM24 153h-4v-6h4zM24 147h-4v-6h4zM28 192h-4v-6h4zM20 174h-4v-6h4zM20 168h-4v-6h4zM24 165h-4v-6h4zM20 144h-4v-6h4zM20 138h-4v-6h4zM20 162h-4v-6h4zM24 177h-4v-6h4zM24 171h-4v-6h4zM24 183h-4v-6h4zM28 174h-4v-6h4zM32 183h-4v-6h4zM32 189h-4v-6h4zM28 180h-4v-6h4zM28 168h-4v-6h4zM28 186h-4v-6h4z"/><path fill="#6CB950" d="M36 168h-4v-6h4z"/><path fill="#074710" d="M36 198h-4v-6h4z"/><path fill="#D43A48" d="M40 75h-4v-6h4z"/><path fill="#B4131F" d="M40 81h-4v-6h4z"/><path fill="#D43A48" d="M52 72h-4v-6h4z"/><path fill="#CDDB91" d="M36 108h-4v-6h4zM36 114h-4v-6h4zM28 162h-4v-6h4zM24 141h-4v-6h4zM36 186h-4v-6h4zM28 150h-4v-6h4zM36 180h-4v-6h4z"/><path fill="#6CB950" d="M40 177h-4v-6h4zM32 201h-4v-6h4zM36 204h-4v-6h4zM24 195h-4v-6h4zM28 198h-4v-6h4zM20 186h-4v-6h4zM40 207h-4v-6h4z"/><path fill="#CDDB91" d="M40 171h-4v-6h4z"/><path fill="#6CB950" d="M40 189h-4v-6h4zM40 183h-4v-6h4z"/><path fill="#CDDB91" d="M40 195h-4v-6h4zM32 177h-4v-6h4zM36 192h-4v-6h4zM44 186h-4v-6h4zM44 198h-4v-6h4zM44 216h-4v-6h4zM28 204h-4v-6h4zM44 210h-4v-6h4zM36 210h-4v-6h4zM32 207h-4v-6h4zM40 213h-4v-6h4zM44 204h-4v-6h4zM44 192h-4v-6h4zM32 165h-4v-6h4zM28 156h-4v-6h4zM32 171h-4v-6h4zM32 111h-4v-6h4z"/><path fill="#6CB950" d="M32 129h-4v-6h4zM36 132h-4v-6h4z"/><path fill="#CDDB91" d="M36 126h-4v-6h4z"/><path fill="#6CB950" d="M12 132H8v-6h4zM16 135h-4v-6h4z"/><path fill="#CDDB91" d="M16 129h-4v-6h4z"/><path fill="#074710" d="M8 117H4v-6h4zM8 111H4v-6h4z"/><path fill="#CDDB91" d="M12 120H8v-6h4zM4 120H0v-6h4z"/><path fill="#6CB950" d="M4 114H0v-6h4z"/><path fill="#074710" d="M12 126H8v-6h4z"/><path fill="#CDDB91" d="M32 141h-4v-6h4zM32 123h-4v-6h4zM16 147h-4v-6h4zM12 144H8v-6h4zM16 141h-4v-6h4zM12 138H8v-6h4zM4 132H0v-6h4zM4 108H0v-6h4zM4 126H0v-6h4zM8 129H4v-6h4z"/><path fill="#6CB950" d="M8 123H4v-6h4z"/><path fill="#CDDB91" d="M8 135H4v-6h4zM8 141H4v-6h4zM12 150H8v-6h4zM12 156H8v-6h4z"/><path fill="#B4131F" d="M52 78h-4v-6h4z"/><path fill="#074710" d="M20 180h-4v-6h4z"/><path fill="#D43A48" d="M48 81h-4v-6h4z"/><path fill="#B4131F" d="M48 87h-4v-6h4z"/><path fill="#D43A48" d="M44 84h-4v-6h4zM44 78h-4v-6h4z"/><path fill="#B4131F" d="M44 90h-4v-6h4z"/><path fill="#6CB950" d="M32 159h-4v-6h4zM12 153h4v6h-4zM12 162H8v-6h4z"/><path fill="#D43A48" d="M40 87h-4v-6h4z"/><path fill="#B4131F" d="M44 72h-4v-6h4z"/><path fill="#6CB950" d="M32 105h-4v-6h4z"/><path fill="#B4131F" d="M40 93h-4v-6h4zM24 93h-4v-6h4z"/><path fill="#D43A48" d="M20 21h4v6h-4z"/><path fill="#B4131F" d="M20 9h4v6h-4z"/><path fill="#D43A48" d="M20 33h4v6h-4zM20 27h4v6h-4zM44 9h4v6h-4zM32 6h4v6h-4z"/><path fill="#B4131F" d="M24 30h4v6h-4z"/><path fill="#D43A48" d="M32 30h4v6h-4zM28 21h4v6h-4zM28 15h4v6h-4zM28 33h4v6h-4zM28 27h4v6h-4zM28 75h4v6h-4zM28 69h4v6h-4z"/><path fill="#6CB950" d="M32 144h4v6h-4zM16 183h-4v-6h4zM16 189h-4v-6h4zM16 177h-4v-6h4zM16 186h4v6h-4zM8 165H4v-6h4zM20 156h-4v-6h4z"/><path fill="#CDDB91" d="M16 153h-4v-6h4z"/><path fill="#6CB950" d="M12 165h4v6h-4zM12 168H8v-6h4zM12 180H8v-6h4zM16 165h-4v-6h4zM8 180h4v6H8zM8 171H4v-6h4zM8 177H4v-6h4zM8 168h4v6H8zM16 144h4v6h-4z"/><path fill="#D43A48" d="M28 81h4v6h-4zM28 45h4v6h-4zM28 39h4v6h-4zM28 63h4v6h-4zM28 57h4v6h-4zM24 12h4v6h-4zM24 18h4v6h-4zM20 39h4v6h-4zM20 57h4v6h-4zM20 45h4v6h-4z"/><path fill="#B4131F" d="M20 15h4v6h-4zM24 24h4v6h-4zM24 36h4v6h-4zM4 39h4v6H4zM4 33h4v6H4zM0 48h4v6H0zM4 69h4v6H4z"/><path fill="#D43A48" d="M8 60h4v6H8zM8 72h4v6H8zM8 66h4v6H8z"/><path fill="#B4131F" d="M8 78h4v6H8zM12 81h4v6h-4z"/><path fill="#D43A48" d="M16 78h4v6h-4z"/><path fill="#B4131F" d="M16 84h4v6h-4zM0 54h4v6H0zM0 60h4v6H0zM8 6h4v6H8zM48 18h4v6h-4zM48 12h4v6h-4zM52 33h4v6h-4zM52 27h4v6h-4zM52 69h4v6h-4zM52 63h4v6h-4zM48 6h4v6h-4z"/><path fill="#6CB950" d="M32 90h4v6h-4zM28 87h4v6h-4zM24 90h4v6h-4z"/><path fill="#B4131F" d="M56 54h4v6h-4zM56 48h4v6h-4zM56 42h4v6h-4zM44 3h4v6h-4z"/><path fill="#D43A48" d="M36 15h4v6h-4zM32 12h4v6h-4zM36 21h4v6h-4zM32 57h-4v-6h4zM48 21h-4v-6h4z"/><path fill="#CDDB91" d="M32 99h-4v-6h4z"/><path fill="#DAB3A6" d="M52 66h-4v-6h4z"/><path fill="#D43A48" d="M52 54h-4v-6h4zM52 42h-4v-6h4zM52 36h-4v-6h4zM52 30h-4v-6h4zM56 57h-4v-6h4zM56 51h-4v-6h4zM56 45h-4v-6h4zM48 75h-4v-6h4z"/><path fill="#6CB950" d="M36 102h-4v-6h4z"/><path fill="#D43A48" d="M48 69h-4v-6h4zM44 60h-4v-6h4zM56 63h-4v-6h4zM44 66h-4v-6h4z"/><path fill="#B4131F" d="M48 63h-4v-6h4zM48 51h-4v-6h4zM48 45h-4v-6h4zM48 39h-4v-6h4zM48 33h-4v-6h4z"/><path fill="#D43A48" d="M44 12h-4V6h4zM44 30h-4v-6h4zM44 18h-4v-6h4zM44 54h-4v-6h4zM44 48h-4v-6h4zM44 42h-4v-6h4zM44 36h-4v-6h4zM48 27h-4v-6h4z"/><path fill="#B4131F" d="M40 15h-4V9h4zM40 18h4v6h-4zM36 3h4v6h-4zM12 3h4v6h-4zM24 6h4v6h-4zM28 3h4v6h-4zM32 0h4v6h-4z"/></svg>